
<svg xmlns="http://www.w3.org/2000/svg" viewBox="0 0 106.55 147.31"><defs><style>.cls-1{isolation:isolate;}.cls-2{fill:#344a5d;mix-blend-mode:multiply;}.cls-2,.cls-6{opacity:0.1;}.cls-3,.cls-7{fill:none;stroke:#344a5d;stroke-linecap:round;stroke-linejoin:round;}.cls-3{stroke-width:2.53px;}.cls-4{fill:#37c292;}.cls-5{fill:#23a171;}.cls-6,.cls-8{fill:#fff;}.cls-6{mix-blend-mode:screen;}.cls-7{stroke-width:3px;}</style></defs><title>Asset 8</title><g class="cls-1"><g id="Layer_2" data-name="Layer 2"><g id="Layer_4" data-name="Layer 4"><path class="cls-2" d="M30.09,13.43h0c-3.68,0-4.64-1.63-4.87-3.88,0-.34,0-4.06,0-4.41,0-4.2,5.08-3.87,5.08-3.87l0,.08a13.81,13.81,0,0,0-.18,12.08Z"/><path class="cls-3" d="M82.07,9.54a4.48,4.48,0,0,1-4.52,3.88H29a4.47,4.47,0,0,1-4.52-3.88c0-.34,0-4.06,0-4.41A4.47,4.47,0,0,1,29,1.26H77.55a4.48,4.48,0,0,1,4.52,3.87C82.1,5.48,82.1,9.2,82.07,9.54Z"/><circle class="cls-4" cx="69.18" cy="96.43" r="9.72"/><circle class="cls-4" cx="48.21" cy="93.98" r="5.06"/><path class="cls-5" d="M105.29,94A51.78,51.78,0,0,1,1.74,94a40.35,40.35,0,0,1,1.12-9.33C3.67,81.3,9,77,19.64,78.79c10.06,1.72,19,10.67,28.55,12.72,8.13,1.75,10,1.52,16.94-.43,7.23-2,11.39-2.57,18.32-.11,13.23,4.69,12.14-5,13.71-4.75a9.77,9.77,0,0,1,5.31,2.27A6.92,6.92,0,0,1,105.29,94Z"/><path class="cls-4" d="M105.05,94a51.77,51.77,0,0,1-51.78,51.77h-.7c-1.24,0-2.46-.07-3.68-.18A51.76,51.76,0,0,1,1.5,94,43,43,0,0,1,4.44,78.81c.07-.21.15-.41.23-.61a38.84,38.84,0,0,1,15.58.73,32.28,32.28,0,0,1,4.2,1.54l.06,0c12,5.4,11.74,14.78,24.31,13.11a40.78,40.78,0,0,0,7-1.67,30.29,30.29,0,0,1,19,.79c7,2.33,11.11,4.55,17.82-7.18.21-.38.44-.78.66-1.19A15.13,15.13,0,0,1,96.93,80a14.2,14.2,0,0,1,3.41-2.07,7.12,7.12,0,0,1,.76-.31,42.76,42.76,0,0,1,3.71,12.61A30.93,30.93,0,0,1,105.05,94Z"/><path class="cls-2" d="M56.56,145.7c-1.09.08-2.18.11-3.29.11A51.77,51.77,0,0,1,1.5,94,43,43,0,0,1,4.44,78.81c.07-.21.15-.41.23-.61,3.86-10,10.88-19.64,19-29.33a54.28,54.28,0,0,0,12.83-34.5h3.59S40.08,35,29,47.76C17.82,60.69,1.16,81.76,6.5,103.09s22.16,33.5,33.66,38C51.26,145.43,52.58,144.75,56.56,145.7Z"/><path class="cls-6" d="M103.63,94A51.77,51.77,0,0,1,52.57,145.8h-.71c-1.11,0-2.2,0-3.29-.11l.32-.08c3.74-.84,5.28-.31,16.08-4.53,11.5-4.5,28.33-16.66,33.66-38,2-7.87.94-15.71-1.7-23.12a14.2,14.2,0,0,1,3.41-2.07l.12.3c.08.2.16.4.23.61A43,43,0,0,1,103.63,94Z"/><path class="cls-7" d="M68.87,14.26v.32A54.14,54.14,0,0,0,81.59,49.36c7.94,9.47,15.23,18.82,19.51,28.23a42.76,42.76,0,0,1,3.71,12.61,30.93,30.93,0,0,1,.24,3.84A51.76,51.76,0,0,1,56.56,145.7c-1.09.08-2.18.11-3.29.11A51.77,51.77,0,0,1,1.5,94,43,43,0,0,1,4.44,78.81c.07-.21.15-.41.23-.61,3.86-10,10.88-19.64,19-29.33a54.28,54.28,0,0,0,12.83-34.5V14"/><circle class="cls-8" cx="52.43" cy="118.03" r="2.97"/><circle class="cls-8" cx="62.58" cy="111.7" r="4.19"/><circle class="cls-8" cx="53.51" cy="107.51" r="1.08"/><circle class="cls-4" cx="62.11" cy="50.45" r="1.31"/><circle class="cls-4" cx="51.4" cy="59.21" r="4.94"/><circle class="cls-4" cx="64.07" cy="66.75" r="2.59"/><circle class="cls-4" cx="54.92" cy="74.5" r="1.86"/></g></g></g></svg>