<svg fill="none" xmlns="http://www.w3.org/2000/svg" viewBox="0 0 70 69">
  <path d="M62.473 28.553c3.323-.16 6.265 2.418 6.552 5.744C70.268 50.388 55.54 68.414 34.789 68.99 17.301 69.422.005 55.421.005 34.251c0-3.336 2.757-6.04 6.084-6.04 3.327 0 6.024 2.704 6.024 6.04 0 13.925 11.197 22.937 22.38 22.661C48.26 56.53 57.21 44.61 56.744 34.876c-.16-3.332 2.406-6.163 5.729-6.323z" fill="url(#paint0_linear)"/>
  <path d="M47.423 34.72c0-3.416 2.786-6.185 6.223-6.185h9.07c3.436 0 6.308 2.77 6.308 6.185 0 3.416-2.872 6.184-6.309 6.184h-9.069c-3.437 0-6.223-2.769-6.223-6.184zm-19.028.009c0-3.421 2.768-6.194 6.179-6.194 3.411 0 6.18 2.773 6.18 6.194 0 3.42-2.769 6.194-6.18 6.194-3.411 0-6.18-2.774-6.18-6.194z" fill="#00A672"/>
  <path fill-rule="evenodd" clip-rule="evenodd" d="M40.583 5.79c.138 3.334-2.445 6.148-5.77 6.287-14.35.597-23.11 11.876-22.683 22.585.132 3.334-2.401 6.144-5.726 6.277-3.324.133-6.247-2.557-6.38-5.89C-.671 17.595 13.86.343 34.314.004c3.324-.138 6.13 2.452 6.269 5.785z" fill="#00A672"/>
  <defs>
    <linearGradient id="paint0_linear" x1="34.551" y1="28.21" x2="34.551" y2="69" gradientUnits="userSpaceOnUse">
      <stop stop-color="#00583E"/>
      <stop offset="1" stop-color="#00835C"/>
    </linearGradient>
  </defs>
</svg>
