<svg width="128" height="128" viewBox="0 0 128 128" fill="none" xmlns="http://www.w3.org/2000/svg">
<path d="M104.412 55.325C109.221 55.0935 113.479 58.8244 113.894 63.6379C115.693 86.925 94.3784 113.013 64.3471 113.846C39.0382 114.471 14.0071 94.2089 14.0071 63.5713C14.0071 58.7434 17.9971 54.8301 22.812 54.8301C27.6269 54.8301 31.53 58.7434 31.53 63.5713C31.53 83.7238 47.7345 96.7661 63.9188 96.3667C83.8426 95.8139 96.7952 78.563 96.1208 64.4758C95.8893 59.6537 99.6028 55.5566 104.412 55.325V55.325Z" fill="url(#paint0_linear)"/>
<path d="M82.6309 64.2499C82.6309 59.3062 86.6629 55.2988 91.637 55.2988H104.763C109.736 55.2988 113.892 59.3076 113.892 64.2499C113.892 69.1936 109.736 73.1995 104.762 73.1995H91.637C86.6629 73.1995 82.6309 69.1921 82.6309 64.2499ZM55.0932 64.2629C55.0932 59.312 59.0991 55.2988 64.0356 55.2988C68.9721 55.2988 72.9794 59.312 72.9794 64.2629C72.9794 69.2124 68.9721 73.227 64.0356 73.227C59.0991 73.227 55.0918 69.2124 55.0918 64.2629H55.0932Z" fill="#00A672"/>
<path fill-rule="evenodd" clip-rule="evenodd" d="M72.7323 22.3812C72.9321 27.2063 69.1939 31.2787 64.3819 31.4799C43.6143 32.3439 30.9367 48.6671 31.5546 64.1653C31.7457 68.9903 28.0799 73.057 23.2678 73.2495C18.4573 73.442 14.2271 69.549 14.0346 64.7254C13.0288 39.4656 34.0583 14.4982 63.6597 14.0076C68.4703 13.8079 72.5312 17.5562 72.7323 22.3798V22.3812Z" fill="#00A672"/>
<defs>
<linearGradient id="paint0_linear" x1="64.0027" y1="54.8286" x2="64.0027" y2="113.861" gradientUnits="userSpaceOnUse">
<stop stop-color="#00583E"/>
<stop offset="1" stop-color="#00835C"/>
</linearGradient>
</defs>
</svg>
