<svg fill="none" xmlns="http://www.w3.org/2000/svg" viewBox="0 0 92 69">
  <path d="M91.126 60.616L64.918 13.838c-2.155-3.81-7.74-3.81-9.9-.004l-2.804 4.999 3.256 5.782L60 16.682l26.136 46.46h-9.31c.483 2.96-2.075 5.854-5.719 5.854h15.065c4.306.004 7.03-4.678 4.954-8.38z" fill="#158876"/>
  <path d="M27.853 63.142H6.528l32.191-57.29 10.46 18.44 3.04-5.455-9.154-16.259a4.986 4.986 0 00-8.742.018L1.457 61.345C-.47 64.788 2.07 69 6.077 69h27.495c-3.644 0-6.202-2.893-5.72-5.858z" fill="#41B38A"/>
  <path d="M76.826 63.142a4.846 4.846 0 00-.554-1.574L55.474 24.615l-3.255-5.782-3.04 5.455-20.776 37.285a4.908 4.908 0 00-.554 1.565c-.483 2.96 2.079 5.853 5.719 5.853h37.535c3.644.005 6.202-2.884 5.723-5.849zm-42.99 0L52.393 30.28 70.84 63.142H33.836z" fill="#243746"/>
</svg>
