<svg width="128" height="128" viewBox="0 0 128 128" fill="none" xmlns="http://www.w3.org/2000/svg">
<path d="M113.219 92.5837L84.4309 41.1999C82.0637 37.0148 75.9288 37.0148 73.5562 41.1956L70.4761 46.6868L74.0527 53.0381L79.0287 44.324L107.738 95.3584H97.5114C98.0419 98.6099 95.2321 101.789 91.2293 101.789H107.778C112.508 101.793 115.5 96.6502 113.219 92.5837V92.5837Z" fill="#158876"/>
<path d="M43.7171 95.3592H20.2924L55.653 32.4284L67.1429 52.684L70.4822 46.6919L60.4269 28.832C59.9529 27.9725 59.2566 27.2562 58.4109 26.758C57.5652 26.2598 56.6012 25.998 55.6197 26C54.6381 26.002 53.6752 26.2678 52.8315 26.7695C51.9879 27.2712 51.2946 27.9903 50.8241 28.8518L14.7221 93.3852C12.6054 97.1672 15.3955 101.794 19.797 101.794H49.9992C45.9964 101.794 43.1865 98.6161 43.716 95.3592H43.7171Z" fill="#41B38A"/>
<path d="M97.5122 95.3592C97.4109 94.752 97.205 94.167 96.9037 93.6302L74.0579 53.0388L70.4824 46.6875L67.1431 52.6796L44.3215 93.6357C44.0225 94.17 43.8167 94.7514 43.7129 95.3548C43.1824 98.6062 45.9966 101.784 49.995 101.784H91.2257C95.2285 101.79 98.0384 98.6161 97.5122 95.3592V95.3592ZM50.2894 95.3592L70.6735 59.2616L90.9368 95.3592H50.2894V95.3592Z" fill="#243746"/>
</svg>
