<svg width="128" height="128" viewBox="0 0 128 128" fill="none" xmlns="http://www.w3.org/2000/svg">
<path d="M64 114C91.6143 114 114 91.6142 114 64C114 36.3858 91.6143 14 64 14C36.3858 14 14 36.3858 14 64C14 91.6142 36.3858 114 64 114Z" fill="white"/>
<path d="M72.1825 63.9997C72.1825 68.519 68.5224 72.1791 64.0031 72.1791C59.4838 72.1791 55.8237 68.5147 55.8237 63.9997C55.8237 59.4804 59.4881 55.8203 64.0031 55.8203C68.5181 55.8203 72.1825 59.4804 72.1825 63.9997Z" fill="#263238"/>
<path d="M100.314 43.0316C98.5353 39.973 96.3745 37.1505 93.8871 34.6331L84.4319 40.0932C81.4849 37.5758 78.1341 35.647 74.5599 34.3711C71.3294 37.6446 68.7647 41.3004 66.9175 45.2741C77.4424 44.5567 88.3154 48.3671 98.4064 56.2544L104.356 52.8177C103.428 49.3982 102.071 46.1118 100.314 43.0316Z" fill="#1976D2"/>
<path d="M100.313 84.9644C102.074 81.8929 103.44 78.6108 104.377 75.1999L94.9214 69.7398C95.6303 65.9293 95.6216 62.063 94.9386 58.3298C90.4923 57.17 86.0418 56.7747 81.6729 57.1657C87.5582 65.925 89.6933 77.2447 87.9105 89.9262L93.8603 93.3629C96.3605 90.8412 98.53 88.0231 100.313 84.9644V84.9644Z" fill="#42A5F5"/>
<path d="M64.0051 105.928C67.545 105.92 71.0676 105.46 74.4914 104.562V93.6421C78.1472 92.349 81.4895 90.4116 84.3849 87.9543C83.1649 83.5209 81.2832 79.4742 78.7616 75.8828C74.1177 85.3553 65.3841 92.8688 53.5103 97.6673V104.541C56.9341 105.447 60.461 105.911 64.0051 105.928Z" fill="#1976D2"/>
<path d="M27.6909 84.9689C29.4694 88.0276 31.6302 90.85 34.1175 93.3674L43.5728 87.9073C46.5198 90.4247 49.8706 92.3535 53.4448 93.6294C56.6753 90.3559 59.24 86.7001 61.0872 82.7264C50.5623 83.4438 39.6893 79.6334 29.5983 71.7461L23.6484 75.1828C24.5764 78.6024 25.9339 81.8887 27.6909 84.9689V84.9689Z" fill="#42A5F5"/>
<path d="M27.688 43.0352C25.9266 46.1068 24.5605 49.3888 23.624 52.7998L33.0793 58.2599C32.3705 62.0703 32.3791 65.9367 33.0621 69.6698C37.5084 70.8297 41.9589 71.2249 46.3279 70.834C40.4425 62.0746 38.3074 50.7549 40.0902 38.0734L34.1404 34.6367C31.6445 37.1541 29.475 39.9765 27.688 43.0352V43.0352Z" fill="#1976D2"/>
<path d="M64.0004 22.0723C60.4606 22.0809 56.9379 22.5405 53.5141 23.4384V34.3585C49.8582 35.6516 46.516 37.5891 43.6206 40.0463C44.8406 44.4797 46.7222 48.5264 49.2439 52.1178C53.8878 42.6453 62.6214 35.1318 74.4953 30.3333V23.4598C71.0714 22.5534 67.5445 22.0894 64.0004 22.0723Z" fill="#42A5F5"/>
</svg>
