<svg width="512" height="512" viewBox="0 0 512 512" fill="none" xmlns="http://www.w3.org/2000/svg">
<rect width="512" height="512" fill="white"/>
<path d="M199.953 48.3986C200.341 47.7512 201.28 47.7512 201.668 48.3986L321.045 247.36C321.445 248.027 320.965 248.875 320.187 248.875H81.4335C80.6562 248.875 80.1761 248.027 80.576 247.36L199.953 48.3986Z" fill="#82DBC5"/>
<path d="M251.285 169.113C251.285 168.561 251.733 168.113 252.285 168.113H432C432.552 168.113 433 168.561 433 169.113V348.828C433 349.38 432.552 349.828 432 349.828H252.285C251.733 349.828 251.285 349.38 251.285 348.828V169.113Z" fill="#4F4F4F"/>
<circle cx="256.334" cy="368.182" r="96.3639" fill="#EFAC35"/>
</svg>