<svg width="128" height="128" viewBox="0 0 128 128" fill="none" xmlns="http://www.w3.org/2000/svg">
<path fill-rule="evenodd" clip-rule="evenodd" d="M21.3004 38.7151L73.3707 30.986C74.7635 30.7802 76.2258 31.6223 76.6403 32.873L98.1827 97.7885C98.7102 99.3827 97.8899 100.951 96.3406 101.287L38.0282 113.929C37.1972 114.107 36.3295 113.949 35.6155 113.488C34.9014 113.027 34.3993 112.302 34.2194 111.471L19.0496 41.5456C18.7598 40.2079 19.7699 38.9427 21.3004 38.7151Z" fill="url(#paint0_linear_1_16)"/>
<path fill-rule="evenodd" clip-rule="evenodd" d="M21.6246 38.0174L73.6978 30.2868C75.0892 30.081 76.55 30.9231 76.9645 32.1738L98.5084 97.0893C99.0373 98.6835 98.2156 100.252 96.6677 100.588L38.3553 113.23C37.5246 113.408 36.6573 113.249 35.9433 112.789C35.2294 112.328 34.7271 111.604 34.5465 110.774L19.3738 40.8478C19.084 39.5087 20.0941 38.2449 21.6246 38.0174Z" fill="url(#paint1_linear_1_16)"/>
<path fill-rule="evenodd" clip-rule="evenodd" d="M26.5623 30.2485L78.2558 22.6686C79.6413 22.4657 81.1109 23.315 81.5399 24.5687L103.385 88.3464C103.911 89.8798 103.117 91.3842 101.607 91.7001L45.0089 103.59C44.1998 103.755 43.3584 103.602 42.6585 103.164C41.9586 102.726 41.4536 102.036 41.248 101.236L24.4115 33.0615C24.0825 31.7282 25.0478 30.4716 26.5623 30.2499V30.2485Z" fill="url(#paint2_linear_1_16)"/>
<path fill-rule="evenodd" clip-rule="evenodd" d="M26.889 29.5512L78.5811 21.9714C79.9666 21.7685 81.4362 22.6177 81.8652 23.8714L103.712 87.6492C104.237 89.1811 103.444 90.6869 101.934 91.0028L45.3342 102.891C44.5253 103.056 43.684 102.904 42.9842 102.466C42.2843 102.028 41.7792 101.339 41.5733 100.539L24.7382 32.3628C24.4092 31.0295 25.373 29.7715 26.889 29.5497V29.5512Z" fill="url(#paint3_linear_1_16)"/>
<path fill-rule="evenodd" clip-rule="evenodd" d="M32.1167 22.0637L83.3667 14.7259C84.7421 14.5288 86.2074 15.3708 86.645 16.61L108.732 79.2109C109.258 80.7066 108.485 82.1689 106.995 82.4718L51.2807 93.859C49.6416 94.1937 47.9676 93.1633 47.5474 91.5618L30.0224 24.8289C29.6746 23.5159 30.6167 22.2782 32.1167 22.0637Z" fill="url(#paint4_linear_1_16)"/>
<path fill-rule="evenodd" clip-rule="evenodd" d="M32.4419 21.365L83.692 14.0286C85.0673 13.8315 86.5326 14.6736 86.9703 15.9127L109.058 78.5136C109.584 80.0093 108.81 81.4702 107.32 81.7746L51.606 93.1617C49.9668 93.495 48.2929 92.466 47.8726 90.8631L30.3477 24.1331C30.0013 22.8172 30.9419 21.5809 32.4419 21.365Z" fill="url(#paint5_linear_1_16)"/>
<path fill-rule="evenodd" clip-rule="evenodd" d="M60.1174 62.5794L82.6945 58.3953C83.0148 58.3373 83.3307 58.5257 83.4278 58.8373L87.2178 70.881C87.2447 70.9676 87.2531 71.059 87.2424 71.1491C87.2317 71.2392 87.2021 71.326 87.1556 71.4039C87.1091 71.4818 87.0468 71.5491 86.9726 71.6013C86.8984 71.6536 86.814 71.6896 86.725 71.7071L63.8232 76.1666C63.6642 76.1974 63.4995 76.1675 63.3615 76.0827C63.2236 75.9978 63.1225 75.8643 63.0783 75.7086L59.6115 63.3895C59.5873 63.3031 59.5813 63.2126 59.594 63.1237C59.6067 63.0348 59.6377 62.9495 59.6852 62.8733C59.7326 62.7971 59.7954 62.7316 59.8696 62.681C59.9437 62.6304 60.0276 62.5958 60.1159 62.5794H60.1174ZM58.1666 63.6519L61.5782 76.0709C61.706 76.535 62.0041 76.9337 62.413 77.1876C62.8219 77.4415 63.3115 77.5318 63.7841 77.4405L86.9612 72.9346C87.2262 72.8832 87.4772 72.7762 87.6978 72.6207C87.9184 72.4652 88.1035 72.2648 88.241 72.0325C88.3785 71.8003 88.4652 71.5415 88.4954 71.2734C88.5256 71.0052 88.4987 70.7336 88.4163 70.4766L84.5902 58.5156C84.4492 58.0751 84.1533 57.7007 83.7572 57.4619C83.3611 57.223 82.8919 57.136 82.4365 57.217L59.6739 61.2634C59.4124 61.3102 59.1635 61.4109 58.9432 61.5592C58.7228 61.7074 58.5357 61.9 58.3939 62.1246C58.2521 62.3492 58.1586 62.6008 58.1195 62.8636C58.0804 63.1263 58.0964 63.3943 58.1666 63.6504V63.6519ZM62.671 64.6635L65.0566 73.0404L67.6218 72.4564L66.2493 67.6331L69.7508 70.3737L71.4538 66.5157L72.8494 71.4143L75.3379 70.8824L72.9262 62.7852L70.2856 63.2417L68.6856 66.7954L65.2334 64.1794L62.671 64.6635ZM81.2481 65.7896L79.9698 61.4924L77.3133 61.9475L78.6611 66.2823L76.2741 66.7447L81.1785 70.0172L83.6655 65.32L81.2481 65.7896Z" fill="#BCC0CF"/>
<path d="M87.1615 71.3968L86.8905 71.9577L86.8064 72.136C86.7598 72.206 86.6997 72.266 86.6295 72.3123C86.5592 72.3586 86.4804 72.3903 86.3977 72.4055L63.4988 76.8694C63.3394 76.8991 63.1746 76.8684 63.0366 76.7832C62.8986 76.698 62.7973 76.5644 62.7524 76.4085L59.2886 64.0895C59.2475 63.9466 59.2578 63.7937 59.3176 63.6576L59.3408 63.6112L59.364 63.5648L59.6249 63.004C59.5776 63.1268 59.5725 63.2619 59.6104 63.388L59.7031 63.7199L63.0756 75.7085C63.1202 75.8646 63.2213 75.9986 63.3594 76.0841C63.4974 76.1696 63.6624 76.2005 63.822 76.1708L86.7137 71.7113H86.7209C86.8128 71.6945 86.8998 71.6576 86.9757 71.6032C87.0516 71.5489 87.1146 71.4784 87.1601 71.3968H87.1615ZM88.1224 72.1968C88.2088 71.8593 88.1987 71.5043 88.0934 71.1722L84.2658 59.2155C84.1235 58.7751 83.827 58.4009 83.4307 58.1618C83.0345 57.9227 82.5652 57.8347 82.1093 57.914L59.3495 61.9634C58.848 62.0489 58.4248 62.3257 58.1553 62.7112C58.2352 62.3462 58.4223 62.0133 58.6927 61.7553C58.963 61.4974 59.3043 61.326 59.6727 61.2634L82.4411 57.2198C82.8953 57.1376 83.3638 57.2237 83.7591 57.4619C84.1545 57.7001 84.4495 58.0741 84.589 58.514L88.4151 70.4794C88.6152 71.0881 88.4847 71.7273 88.1224 72.1968ZM83.6644 65.3214L83.2875 66.0301L80.9237 66.491L79.6455 62.1953L77.5048 62.5648L77.3121 61.9489L79.9686 61.4938L81.2469 65.791L83.6644 65.3214ZM78.1512 66.3837L78.6585 66.2837L78.3367 66.9837L77.0121 67.2388L76.2729 66.746L78.1512 66.3837ZM68.6728 66.7924L68.3569 67.4924L64.9075 64.8822L62.8365 65.2678L62.6669 64.6663L65.2322 64.1808L68.6728 66.7924ZM75.3338 70.8794L74.8323 70.9881L72.6004 63.4808L69.967 63.9431L70.283 63.2416L72.9236 62.788L75.3338 70.8809V70.8794ZM66.5945 68.8548L66.2467 67.6316L65.925 68.3316L67.1337 72.5664L67.6177 72.4592L66.5945 68.8548Z" fill="#A2A6B3"/>
<g clip-path="url(#clip0_1_16)">
<path d="M76.4881 26.473L69.315 52.425C69.2814 52.547 69.2159 52.6579 69.1253 52.7463C69.0347 52.8347 68.9222 52.8975 68.7994 52.9281C68.6765 52.9587 68.5478 52.9561 68.4263 52.9206C68.3048 52.885 68.1949 52.8178 68.1079 52.7259L49.4986 33.0866C49.4051 32.9881 49.3417 32.865 49.3157 32.7317C49.2897 32.5984 49.3023 32.4604 49.3519 32.334C49.4016 32.2076 49.4863 32.098 49.5961 32.018C49.7058 31.938 49.8362 31.891 49.9717 31.8825L63.3095 31.0367C63.3943 31.0314 63.4776 31.011 63.5552 30.9765L75.5076 25.6311C75.6312 25.5758 75.7679 25.5567 75.9019 25.5761C76.0359 25.5956 76.1616 25.6527 76.2643 25.7408C76.3671 25.829 76.4426 25.9445 76.4822 26.074C76.5218 26.2034 76.5238 26.3415 76.4879 26.472L76.4881 26.473Z" fill="url(#paint6_linear_1_16)"/>
<path d="M68.1021 24.2659L59.1107 28.4299C59.0387 28.4632 58.9798 28.5195 58.9434 28.5899C58.907 28.6604 58.895 28.7409 58.9095 28.8189L60.7327 38.775C60.7427 38.8297 60.7653 38.8812 60.7987 38.9256C60.8321 38.9699 60.8754 39.0059 60.9251 39.0306C60.9748 39.0553 61.0296 39.068 61.0852 39.0679C61.1407 39.0677 61.1954 39.0545 61.245 39.0295L63.7255 37.7783C63.779 37.7514 63.8383 37.7383 63.8981 37.7402C63.958 37.7422 64.0163 37.7592 64.0679 37.7896C64.1194 37.8201 64.1625 37.863 64.1931 37.9144C64.2237 37.9658 64.2409 38.0241 64.2431 38.0839L64.3994 42.1011C64.4018 42.163 64.4202 42.2231 64.4529 42.2757C64.4855 42.3283 64.5313 42.3715 64.5857 42.4011C64.64 42.4306 64.7012 42.4455 64.7631 42.4443C64.8249 42.4431 64.8855 42.4259 64.9387 42.3942L66.4418 41.503C66.495 41.4713 66.5557 41.454 66.6177 41.4528C66.6797 41.4516 66.7409 41.4666 66.7953 41.4963C66.8498 41.5259 66.8956 41.5693 66.9281 41.622C66.9607 41.6748 66.979 41.7351 66.9812 41.7971L67.2111 48.1107C67.2254 48.5056 67.7759 48.588 67.9059 48.2154L67.992 47.9657L71.9265 30.7193C71.9412 30.6543 71.9374 30.5866 71.9156 30.5236C71.8939 30.4607 71.8549 30.4051 71.8032 30.3631C71.7514 30.3212 71.689 30.2945 71.6229 30.2862C71.5568 30.2779 71.4897 30.2882 71.4292 30.316L68.85 31.5007C68.7945 31.5262 68.7334 31.5369 68.6725 31.532C68.6116 31.527 68.553 31.5065 68.5023 31.4724C68.4516 31.4384 68.4105 31.3919 68.3829 31.3374C68.3553 31.2829 68.3422 31.2222 68.3447 31.1612L68.6101 24.6037C68.6128 24.5425 68.5996 24.4816 68.5719 24.4269C68.5441 24.3723 68.5028 24.3256 68.4518 24.2916C68.4009 24.2575 68.342 24.2372 68.2809 24.2324C68.2198 24.2277 68.1585 24.2388 68.1029 24.2647L68.1021 24.2659Z" fill="url(#paint7_linear_1_16)"/>
</g>
<defs>
<linearGradient id="paint0_linear_1_16" x1="58.6719" y1="114" x2="58.6719" y2="30.9541" gradientUnits="userSpaceOnUse">
<stop stop-color="#1D2130"/>
<stop offset="1" stop-color="#3E445A"/>
</linearGradient>
<linearGradient id="paint1_linear_1_16" x1="58.9962" y1="113.303" x2="58.9962" y2="30.2564" gradientUnits="userSpaceOnUse">
<stop stop-color="#262B3F"/>
<stop offset="1" stop-color="#656E91"/>
</linearGradient>
<linearGradient id="paint2_linear_1_16" x1="63.9469" y1="103.657" x2="63.9469" y2="22.6382" gradientUnits="userSpaceOnUse">
<stop stop-color="#A91DEB"/>
<stop offset="1" stop-color="#408CF7"/>
</linearGradient>
<linearGradient id="paint3_linear_1_16" x1="64.2736" y1="102.96" x2="64.2736" y2="21.9409" gradientUnits="userSpaceOnUse">
<stop stop-color="#BE35FF"/>
<stop offset="1" stop-color="#5CB1FF"/>
</linearGradient>
<linearGradient id="paint4_linear_1_16" x1="69.423" y1="93.9227" x2="69.423" y2="14.6969" gradientUnits="userSpaceOnUse">
<stop offset="0.59" stop-color="#CECFD0"/>
<stop offset="1" stop-color="#DFDFDF"/>
</linearGradient>
<linearGradient id="paint5_linear_1_16" x1="69.7483" y1="93.2255" x2="69.7483" y2="13.9996" gradientUnits="userSpaceOnUse">
<stop stop-color="#EAEEF0"/>
<stop offset="0.41" stop-color="white"/>
</linearGradient>
<linearGradient id="paint6_linear_1_16" x1="48.7292" y1="31.3219" x2="69.8996" y2="49.0042" gradientUnits="userSpaceOnUse">
<stop stop-color="#41D1FF"/>
<stop offset="1" stop-color="#BD34FE"/>
</linearGradient>
<linearGradient id="paint7_linear_1_16" x1="61.4047" y1="26.4386" x2="69.1074" y2="45.4473" gradientUnits="userSpaceOnUse">
<stop stop-color="#FFEA83"/>
<stop offset="0.083" stop-color="#FFDD35"/>
<stop offset="1" stop-color="#FFA800"/>
</linearGradient>
<clipPath id="clip0_1_16">
<rect width="32" height="32" fill="white" transform="translate(46 27.6139) rotate(-13.7647)"/>
</clipPath>
</defs>
</svg>
