<svg width="128" height="128" viewBox="0 0 128 128" fill="none" xmlns="http://www.w3.org/2000/svg">
<path fill-rule="evenodd" clip-rule="evenodd" d="M21.3004 38.7151L73.3707 30.986C74.7635 30.7802 76.2258 31.6223 76.6403 32.873L98.1827 97.7885C98.7102 99.3827 97.8899 100.951 96.3406 101.287L38.0282 113.929C37.1972 114.107 36.3295 113.949 35.6155 113.488C34.9014 113.027 34.3993 112.302 34.2194 111.471L19.0496 41.5456C18.7598 40.2079 19.7699 38.9427 21.3004 38.7151Z" fill="url(#paint0_linear)"/>
<path fill-rule="evenodd" clip-rule="evenodd" d="M21.6246 38.0174L73.6978 30.2868C75.0892 30.081 76.55 30.9231 76.9645 32.1738L98.5084 97.0893C99.0373 98.6835 98.2156 100.252 96.6677 100.588L38.3553 113.23C37.5246 113.408 36.6573 113.249 35.9433 112.789C35.2294 112.328 34.7271 111.604 34.5465 110.774L19.3738 40.8478C19.084 39.5087 20.0941 38.2449 21.6246 38.0174Z" fill="url(#paint1_linear)"/>
<path fill-rule="evenodd" clip-rule="evenodd" d="M26.5623 30.2485L78.2558 22.6686C79.6413 22.4657 81.1109 23.315 81.5399 24.5687L103.385 88.3464C103.911 89.8798 103.117 91.3842 101.607 91.7001L45.0089 103.59C44.1998 103.755 43.3584 103.602 42.6585 103.164C41.9586 102.726 41.4536 102.036 41.248 101.236L24.4115 33.0615C24.0825 31.7282 25.0478 30.4716 26.5623 30.2499V30.2485Z" fill="url(#paint2_linear)"/>
<path fill-rule="evenodd" clip-rule="evenodd" d="M26.889 29.5512L78.5811 21.9714C79.9666 21.7685 81.4362 22.6177 81.8652 23.8714L103.712 87.6492C104.237 89.1811 103.444 90.6869 101.934 91.0028L45.3342 102.891C44.5253 103.056 43.684 102.904 42.9842 102.466C42.2843 102.028 41.7792 101.339 41.5733 100.539L24.7382 32.3628C24.4092 31.0295 25.373 29.7715 26.889 29.5497V29.5512Z" fill="url(#paint3_linear)"/>
<path fill-rule="evenodd" clip-rule="evenodd" d="M32.1167 22.0637L83.3667 14.7259C84.7421 14.5288 86.2074 15.3708 86.645 16.61L108.732 79.2109C109.258 80.7066 108.485 82.1689 106.995 82.4718L51.2807 93.859C49.6416 94.1937 47.9676 93.1633 47.5474 91.5618L30.0224 24.8289C29.6746 23.5159 30.6167 22.2782 32.1167 22.0637Z" fill="url(#paint4_linear)"/>
<path fill-rule="evenodd" clip-rule="evenodd" d="M32.4419 21.365L83.692 14.0286C85.0673 13.8315 86.5326 14.6736 86.9703 15.9127L109.058 78.5136C109.584 80.0093 108.81 81.4702 107.32 81.7746L51.606 93.1617C49.9668 93.495 48.2929 92.466 47.8726 90.8631L30.3477 24.1331C30.0013 22.8172 30.9419 21.5809 32.4419 21.365Z" fill="url(#paint5_linear)"/>
<path fill-rule="evenodd" clip-rule="evenodd" d="M60.1174 62.5794L82.6945 58.3953C83.0148 58.3373 83.3307 58.5257 83.4278 58.8373L87.2178 70.881C87.2447 70.9676 87.2531 71.059 87.2424 71.1491C87.2317 71.2392 87.2021 71.326 87.1556 71.4039C87.1091 71.4818 87.0468 71.5491 86.9726 71.6013C86.8984 71.6536 86.814 71.6896 86.725 71.7071L63.8232 76.1666C63.6642 76.1974 63.4995 76.1675 63.3615 76.0827C63.2236 75.9978 63.1225 75.8643 63.0783 75.7086L59.6115 63.3895C59.5873 63.3031 59.5813 63.2126 59.594 63.1237C59.6067 63.0348 59.6377 62.9495 59.6852 62.8733C59.7326 62.7971 59.7954 62.7316 59.8696 62.681C59.9437 62.6304 60.0276 62.5958 60.1159 62.5794H60.1174ZM58.1666 63.6519L61.5782 76.0709C61.706 76.535 62.0041 76.9337 62.413 77.1876C62.8219 77.4415 63.3115 77.5318 63.7841 77.4405L86.9612 72.9346C87.2262 72.8832 87.4772 72.7762 87.6978 72.6207C87.9184 72.4652 88.1035 72.2648 88.241 72.0325C88.3785 71.8003 88.4652 71.5415 88.4954 71.2734C88.5256 71.0052 88.4987 70.7336 88.4163 70.4766L84.5902 58.5156C84.4492 58.0751 84.1533 57.7007 83.7572 57.4619C83.3611 57.223 82.8919 57.136 82.4365 57.217L59.6739 61.2634C59.4124 61.3102 59.1635 61.4109 58.9432 61.5592C58.7228 61.7074 58.5357 61.9 58.3939 62.1246C58.2521 62.3492 58.1586 62.6008 58.1195 62.8636C58.0804 63.1263 58.0964 63.3943 58.1666 63.6504V63.6519ZM62.671 64.6635L65.0566 73.0404L67.6218 72.4564L66.2493 67.6331L69.7508 70.3737L71.4538 66.5157L72.8494 71.4143L75.3379 70.8824L72.9262 62.7852L70.2856 63.2417L68.6856 66.7954L65.2334 64.1794L62.671 64.6635V64.6635ZM81.2481 65.7896L79.9698 61.4924L77.3133 61.9475L78.6611 66.2823L76.2741 66.7447L81.1785 70.0172L83.6655 65.32L81.2481 65.7896V65.7896Z" fill="#BCC0CF"/>
<path d="M87.1615 71.3968L86.8905 71.9577L86.8064 72.136C86.7598 72.206 86.6997 72.266 86.6295 72.3123C86.5592 72.3586 86.4804 72.3903 86.3977 72.4055L63.4988 76.8694C63.3394 76.8991 63.1746 76.8684 63.0366 76.7832C62.8986 76.698 62.7973 76.5644 62.7524 76.4085L59.2886 64.0895C59.2475 63.9466 59.2578 63.7937 59.3176 63.6576L59.3408 63.6112L59.364 63.5648L59.6249 63.004C59.5776 63.1268 59.5725 63.2619 59.6104 63.388L59.7031 63.7199L63.0756 75.7085C63.1202 75.8646 63.2213 75.9986 63.3594 76.0841C63.4974 76.1696 63.6624 76.2005 63.822 76.1708L86.7137 71.7113H86.7209C86.8128 71.6945 86.8998 71.6576 86.9757 71.6032C87.0516 71.5489 87.1146 71.4784 87.1601 71.3968H87.1615ZM88.1224 72.1968C88.2088 71.8593 88.1987 71.5043 88.0934 71.1722L84.2658 59.2155C84.1235 58.7751 83.827 58.4009 83.4307 58.1618C83.0345 57.9227 82.5652 57.8347 82.1093 57.914L59.3495 61.9634C58.848 62.0489 58.4248 62.3257 58.1553 62.7112C58.2352 62.3462 58.4223 62.0133 58.6927 61.7553C58.963 61.4974 59.3043 61.326 59.6727 61.2634L82.4411 57.2198C82.8953 57.1376 83.3638 57.2237 83.7591 57.4619C84.1545 57.7001 84.4495 58.0741 84.589 58.514L88.4151 70.4794C88.6152 71.0881 88.4847 71.7273 88.1224 72.1968ZM83.6644 65.3214L83.2875 66.0301L80.9237 66.491L79.6455 62.1953L77.5048 62.5648L77.3121 61.9489L79.9686 61.4938L81.2469 65.791L83.6644 65.3214ZM78.1512 66.3837L78.6585 66.2837L78.3367 66.9837L77.0121 67.2388L76.2729 66.746L78.1512 66.3837V66.3837ZM68.6728 66.7924L68.3569 67.4924L64.9075 64.8822L62.8365 65.2678L62.6669 64.6663L65.2322 64.1808L68.6728 66.7924V66.7924ZM75.3338 70.8794L74.8323 70.9881L72.6004 63.4808L69.967 63.9431L70.283 63.2416L72.9236 62.788L75.3338 70.8809V70.8794ZM66.5945 68.8548L66.2467 67.6316L65.925 68.3316L67.1337 72.5664L67.6177 72.4592L66.5945 68.8548V68.8548Z" fill="#A2A6B3"/>
<path d="M53.0429 30.8031L46.3906 31.7263L70.0432 53.7164L78.5447 26.7363L72.2606 27.845L67.2706 43.738L53.0429 30.8031V30.8031Z" fill="url(#paint6_linear)"/>
<path d="M53.043 30.8023L59.1416 29.8776L64.4997 34.682L66.533 28.7689L72.2621 27.8457L67.2722 43.7372L53.043 30.8023V30.8023Z" fill="url(#paint7_linear)"/>
<defs>
<linearGradient id="paint0_linear" x1="58.6719" y1="114" x2="58.6719" y2="30.9541" gradientUnits="userSpaceOnUse">
<stop stop-color="#1D2130"/>
<stop offset="1" stop-color="#3E445A"/>
</linearGradient>
<linearGradient id="paint1_linear" x1="58.9962" y1="113.303" x2="58.9962" y2="30.2564" gradientUnits="userSpaceOnUse">
<stop stop-color="#262B3F"/>
<stop offset="1" stop-color="#656E91"/>
</linearGradient>
<linearGradient id="paint2_linear" x1="63.9469" y1="103.657" x2="63.9469" y2="22.6382" gradientUnits="userSpaceOnUse">
<stop stop-color="#267550"/>
<stop offset="1" stop-color="#79B881"/>
</linearGradient>
<linearGradient id="paint3_linear" x1="64.2736" y1="102.96" x2="64.2736" y2="21.9409" gradientUnits="userSpaceOnUse">
<stop stop-color="#279264"/>
<stop offset="1" stop-color="#A4F3AA"/>
</linearGradient>
<linearGradient id="paint4_linear" x1="69.423" y1="93.9227" x2="69.423" y2="14.6969" gradientUnits="userSpaceOnUse">
<stop offset="0.59" stop-color="#CECFD0"/>
<stop offset="1" stop-color="#DFDFDF"/>
</linearGradient>
<linearGradient id="paint5_linear" x1="69.7483" y1="93.2255" x2="69.7483" y2="13.9996" gradientUnits="userSpaceOnUse">
<stop stop-color="#EAEEF0"/>
<stop offset="0.41" stop-color="white"/>
</linearGradient>
<linearGradient id="paint6_linear" x1="54.2081" y1="2.21712" x2="87.6376" y2="111.562" gradientUnits="userSpaceOnUse">
<stop offset="0.22" stop-color="#73CB8D"/>
<stop offset="0.4" stop-color="#2F9869"/>
</linearGradient>
<linearGradient id="paint7_linear" x1="49.9328" y1="-7.61715" x2="102.271" y2="144.387" gradientUnits="userSpaceOnUse">
<stop offset="0.25" stop-color="#586080"/>
<stop offset="0.35" stop-color="#2C3247"/>
</linearGradient>
</defs>
</svg>
