<svg width="100" height="100" viewBox="0 0 100 100" fill="none" xmlns="http://www.w3.org/2000/svg">
<g clip-path="url(#clip0_129779_194583)">
<path fill-rule="evenodd" clip-rule="evenodd" d="M15.2429 51.4987L38.2812 27.9075C44.4264 21.6148 54.5092 21.4953 60.8018 27.6404C60.8919 27.7284 60.9809 27.8174 61.0689 27.9075L61.3196 28.1642C67.516 34.5094 67.516 44.6401 61.3196 50.9852L38.2812 74.5765C32.1361 80.8691 22.0533 80.9887 15.7607 74.8435C15.6706 74.7556 15.5816 74.6666 15.4936 74.5765L15.2429 74.3198C9.04646 67.9746 9.04646 57.8439 15.2429 51.4987Z" fill="#12D2AC"/>
<path fill-rule="evenodd" clip-rule="evenodd" d="M61.0876 27.9074L83.8753 51.242C90.2111 57.7299 90.2111 68.0886 83.8753 74.5765C77.7301 80.8691 67.6473 80.9887 61.3547 74.8435C61.2646 74.7556 61.1756 74.6666 61.0876 74.5765L38.3 51.242C31.9641 44.7541 31.9641 34.3954 38.3 27.9074C44.4452 21.6148 54.528 21.4953 60.8206 27.6404C60.9107 27.7284 60.9997 27.8174 61.0876 27.9074Z" fill="#307AF2"/>
<path fill-rule="evenodd" clip-rule="evenodd" d="M61.3513 28.1928L72.4546 39.5625L49.6669 62.897L26.8793 39.5625L37.9826 28.1928C44.2844 21.7397 54.6244 21.6171 61.0775 27.9189C61.1698 28.0091 61.2611 28.1004 61.3513 28.1928Z" fill="#0057FE"/>
</g>
<defs>
<clipPath id="clip0_129779_194583">
<rect width="81.25" height="59.375" fill="white" transform="translate(9.375 20.3125)"/>
</clipPath>
</defs>
</svg>
