<svg width="128" height="128" viewBox="0 0 128 128" fill="none" xmlns="http://www.w3.org/2000/svg">
<path d="M14 101.106C13.9998 102.799 14.3332 104.476 14.9811 106.04C15.6291 107.605 16.5789 109.026 17.7763 110.224C18.9736 111.421 20.3952 112.371 21.9597 113.019C23.5242 113.667 25.201 114 26.8944 114H101.106C102.799 114 104.476 113.667 106.04 113.019C107.605 112.371 109.026 111.421 110.224 110.224C111.421 109.026 112.371 107.605 113.019 106.04C113.667 104.476 114 102.799 114 101.106V26.8944C114 25.201 113.667 23.5242 113.019 21.9597C112.371 20.3952 111.421 18.9736 110.224 17.7763C109.026 16.5789 107.605 15.6291 106.04 14.9811C104.476 14.3332 102.799 13.9998 101.106 14H26.8944C25.201 13.9998 23.5242 14.3332 21.9597 14.9811C20.3952 15.6291 18.9736 16.5789 17.7763 17.7763C16.5789 18.9736 15.6291 20.3952 14.9811 21.9597C14.3332 23.5242 13.9998 25.201 14 26.8944V101.106Z" fill="#563D7C"/>
<path d="M55.4679 58.2336V44.0702H67.9327C69.1215 44.0702 70.2665 44.1688 71.3694 44.366C72.4708 44.5646 73.4454 44.9181 74.2947 45.4266C75.1479 45.9418 75.8496 46.6736 76.3285 47.5477C76.8384 48.4519 77.0919 49.6111 77.0919 51.0237C77.0919 53.5674 76.3285 55.4054 74.8032 56.5364C73.2764 57.666 71.3257 58.2322 68.951 58.2322H55.4679V58.2336ZM42.1553 33.7266V94.273H71.4961C74.2088 94.273 76.8525 93.935 79.4243 93.2561C81.9961 92.5773 84.2863 91.5308 86.2933 90.1181C88.3003 88.7054 89.8975 86.8815 91.0848 84.6491C92.2722 82.4153 92.8651 79.773 92.8651 76.7195C92.8651 72.9308 91.9468 69.6956 90.1088 67.0097C88.2722 64.3252 85.4877 62.4463 81.7567 61.3716C84.4694 60.0702 86.5187 58.4026 87.9046 56.3674C89.2891 54.3322 89.982 51.7899 89.982 48.7364C89.982 45.9097 89.5158 43.535 88.582 41.6125C87.6496 39.6914 86.3356 38.1505 84.6384 36.9914C82.944 35.8322 80.9088 34.9984 78.5341 34.4899C76.1595 33.9815 73.5313 33.7266 70.6468 33.7266H42.1553V33.7266ZM55.4679 83.928V67.3083H69.9694C72.8525 67.3083 75.1708 67.9702 76.9229 69.2998C78.675 70.628 79.551 72.8477 79.551 75.9561C79.551 77.5392 79.2834 78.8392 78.7454 79.8575C78.2441 80.8353 77.4995 81.6677 76.5834 82.2744C75.6792 82.8674 74.6327 83.2913 73.4454 83.5463C72.2581 83.7998 71.0144 83.9266 69.7144 83.9266H55.4679V83.928Z" fill="white"/>
</svg>
