<svg width="128" height="128" viewBox="0 0 128 128" fill="none" xmlns="http://www.w3.org/2000/svg">
<path d="M67.3458 55.2178C78.3825 53.8875 86.3606 47.106 86.0948 34.7384C86.0948 26.2294 80.7773 22.1078 74.128 21.0426L67.3458 55.2178ZM65.6176 63.1966L57.5044 104.95C94.4731 105.481 97.5316 60.5361 65.6176 63.1966H65.6176ZM103.381 95.9073C95.5369 112.663 77.5851 114.125 59.3662 113.993H37.4258L55.5104 23.5695C41.9468 28.7556 32.3726 44.0475 39.4205 56.4145L21.4695 64.6591C14.5551 15.8564 86.0949 -0.366331 98.994 27.8254C104.312 38.9936 96.8671 51.3619 86.76 57.2125C94.4731 59.2065 100.191 63.9932 103.381 69.9767C107.504 77.6898 107.504 87.3976 103.381 95.9073V95.9073Z" fill="#7957D5"/>
</svg>
