<svg width="163" height="190" xmlns="http://www.w3.org/2000/svg"><path d="M88.388665 78.473335c20.929333-2.522667 36.058666-15.382666 35.554666-38.835999 0-16.136-10.084-23.952-22.693333-25.972L88.388665 78.473335zM85.11133 93.604001L69.726 172.782666c70.105331 1.008 75.905331-84.223998 15.385332-79.178665zm71.611999 62.030665c-14.874667 31.774666-48.917332 34.546666-83.466665 34.296H31.65l34.294665-171.47333c-25.721332 9.834667-43.877332 38.833333-30.511999 62.285332L1.391334 96.377334C-11.720666 3.83067 123.94333-26.933329 148.404663 26.528003c10.085333 21.178666-4.033333 44.633332-23.199999 55.727998 14.626666 3.781334 25.469333 12.858667 31.518666 24.205333 7.818666 14.626666 7.818666 33.036 0 49.173332z" fill="#7957D5" fill-rule="nonzero"/></svg>
