<svg width="128" height="128" viewBox="0 0 128 128" fill="none" xmlns="http://www.w3.org/2000/svg">
<path fill-rule="evenodd" clip-rule="evenodd" d="M107.596 85.6251C107.571 89.7752 105.415 90.7009 105.415 90.7009C105.415 90.7009 68.2159 112.196 65.7974 113.543C63.4009 114.571 61.7991 113.543 61.7991 113.543C61.7991 113.543 22.8752 90.9683 21.4545 89.9759C20.0334 88.9835 20.0004 87.4378 20.0004 87.4378C20.0004 87.4378 20.0395 42.7366 20.0004 40.6667C19.9613 38.5964 22.5446 37.0409 22.5446 37.0409L61.4356 14.5617C63.8299 13.2979 66.1609 14.5617 66.1609 14.5617C66.1609 14.5617 100.517 34.5318 104.325 36.6782C108.057 38.4525 107.596 42.1167 107.596 42.1167C107.596 42.1167 107.619 81.7682 107.596 85.6251V85.6251ZM92.0685 40.7609C84.1053 36.1775 65.3463 25.3082 65.3463 25.3082C65.3463 25.3082 63.5161 24.319 61.6363 25.3082L31.102 42.9004C31.102 42.9004 29.0737 44.1182 29.1045 45.7381C29.1352 47.3581 29.1045 82.3418 29.1045 82.3418C29.1045 82.3418 29.1302 83.5516 30.246 84.328C31.3616 85.1045 61.9216 102.772 61.9216 102.772C61.9216 102.772 63.1794 103.577 65.0606 102.772C66.9596 101.718 96.1659 84.8954 96.1659 84.8954C96.1659 84.8954 97.8585 84.1708 97.8781 80.9229C97.8835 79.9863 97.8857 76.3508 97.886 71.783L63.5001 92.6191V84.648C63.5001 81.374 66.0346 79.2131 66.0346 79.2131L96.4494 60.8857C97.5971 59.6872 97.8339 57.7672 97.8828 57.0411C97.8817 53.7117 97.8802 50.8034 97.8792 48.961L63.5001 69.7927V61.4593C63.5001 58.1853 65.6725 56.7491 65.6725 56.7491L92.0685 40.7609V40.7609Z" fill="#409EFF"/>
</svg>
