<svg data-name="Layer 1" xmlns="http://www.w3.org/2000/svg" viewBox="0 0 356.78 426.53">
  <path d="M96.78 312.75A133.83 133.83 0 009.22 345h.06s-16.5 17.5-5.5 29.5 25.84 1.16 28.5-4.5c6-12.77 14.84-20.46 25.65-25.19a109.7 109.7 0 0138.85-7.06c24.84 0 47.15 7.39 65.87 21.6-5.49-12.4-11.76-25.18-18.46-38.25a135.73 135.73 0 00-47.41-8.35z"/>
  <path d="M287.96 238.93c2.53-10.9-.22-24.27-7.05-60.11-6.2-32.54-10.56-60.8-16.28-104.22 4.78-5.27 20.33-26.28 18.63-74.6-26.5 3.79-53 19.2-55.74 20.85a79.29 79.29 0 00-59.58 0c-3.25-1.92-29.45-17.06-55.66-20.8-1.66 47.19 13.13 68.32 18.27 74.2-6.15 43.64-9.91 72-16.13 104.62-9.25 48.56-10.68 55.68-2.31 71.69 33.17 63.44 67.06 120.19 76.31 168.75 1.19 6.24 4.9 7.25 7.24 7.22h.62l-1.57-209.68a15 15 0 116.38.14l-2.81 209.54h1.37c2.34 0 6.06-1 7.25-7.22 8.68-45.62 37.56-98.47 70-157.35a69 69 0 01-14.12 136.54 67.3 67.3 0 01-40.59-13.43A228.56 228.56 0 00214.7 410a92.9 92.9 0 0048.08 13.5 94 94 0 0025.18-184.57z"/>
</svg>
