<svg width="128" height="128" viewBox="0 0 128 128" fill="none" xmlns="http://www.w3.org/2000/svg">
<path d="M42.6903 87.3245C35.162 87.3004 27.8761 89.984 22.1619 94.8855H22.176C22.176 94.8855 18.3076 98.9883 20.8865 101.802C23.4655 104.615 26.9447 102.074 27.5683 100.747C28.975 97.7528 31.0476 95.9499 33.582 94.8409C36.493 93.7428 39.5791 93.182 42.6903 93.1857C48.5141 93.1857 53.7446 94.9183 58.1335 98.2498C56.8464 95.3426 55.3764 92.3464 53.8056 89.2821C50.2468 87.9725 46.4825 87.3095 42.6903 87.3245V87.3245Z" fill="black"/>
<path d="M87.5125 70.0171C88.1056 67.4616 87.4609 64.327 85.8596 55.9243C84.406 48.2953 83.3838 41.6698 82.0428 31.49C83.1634 30.2544 86.8091 25.3286 86.4106 14C80.1976 14.8886 73.9847 18.5014 73.3423 18.8883C68.8632 17.0724 63.8529 17.0724 59.3738 18.8883C58.6119 18.4381 52.4693 14.8886 46.3243 14.0117C45.9352 25.0754 49.4027 30.0293 50.6077 31.4079C49.1659 41.6393 48.2843 48.2883 46.8261 55.936C44.6574 67.3209 44.3221 68.9902 46.2845 72.7437C54.0612 87.6172 62.0067 100.922 64.1753 112.307C64.4543 113.77 65.3242 114.007 65.8728 114H66.0181L65.65 64.8404C64.8066 64.6373 64.068 64.1296 63.5762 63.4149C63.0844 62.7002 62.8741 61.8289 62.9858 60.9686C63.0976 60.1082 63.5233 59.3196 64.1813 58.7541C64.8393 58.1887 65.6831 57.8865 66.5505 57.9055C67.4178 57.9245 68.2475 58.2635 68.8801 58.8572C69.5127 59.451 69.9034 60.2576 69.9773 61.122C70.0512 61.9864 69.8029 62.8476 69.2802 63.5401C68.7576 64.2325 67.9974 64.7073 67.1458 64.8733L66.487 114H66.8082C67.3568 114 68.229 113.765 68.508 112.307C70.543 101.612 77.3139 89.2209 84.9195 75.4165C88.8371 76.2354 92.3121 78.4776 94.6728 81.7097C97.0334 84.9417 98.1122 88.9341 97.7005 92.9152C97.2888 96.8963 95.4159 100.584 92.4438 103.264C89.4717 105.945 85.6114 107.428 81.609 107.428C78.179 107.441 74.8383 106.336 72.0927 104.28C71.3968 106.193 70.8105 108.144 70.3367 110.124C73.7348 112.189 77.6331 113.283 81.609 113.289C86.9387 113.291 92.0882 111.36 96.1038 107.856C100.119 104.352 102.729 99.5109 103.449 94.2302C104.17 88.9494 102.952 83.5865 100.022 79.1347C97.0919 74.6828 92.6476 71.4437 87.5125 70.0171V70.0171Z" fill="black"/>
</svg>
