<svg width="128" height="128" viewBox="0 0 128 128" fill="none" xmlns="http://www.w3.org/2000/svg">
<path fill-rule="evenodd" clip-rule="evenodd" d="M26.723 53.3222C21.9279 48.4181 21.4533 40.5958 25.3008 34.6681C27.7995 30.8196 31.1826 28.0146 35.4352 26.272C36.434 25.8621 37.4641 25.5774 38.5487 25.6043C39.9547 25.6383 40.4142 26.1631 40.158 27.5572C39.6985 30.0634 39.5868 32.5799 39.9412 35.0964C40.6428 40.0705 42.9905 44.2648 46.2528 47.9915C47.0872 48.9445 48.0089 49.822 48.8917 50.734C49.2763 51.0252 49.67 51.3073 50.0443 51.6125C51.062 52.442 51.1968 53.4236 50.3889 54.5944C49.2574 56.2339 47.606 57.0791 45.7098 57.5127C38.7175 59.1112 32.0666 58.7882 26.723 53.3222ZM49.423 47.2931C51.9572 50.529 55.0152 52.7462 59.3858 52.332C61.6229 52.12 63.7975 51.7155 65.3836 49.8829C65.766 49.4407 66.0028 49.0712 65.4467 48.5378C64.7381 47.8572 64.3789 46.9323 63.9701 46.0516C62.8407 43.6187 62.2804 41.0165 61.6666 38.4294C60.5594 31.5164 60.8711 24.7776 64.0418 18.364C64.7127 17.0065 64.3514 15.91 63.1298 15.0272C62.3472 14.463 61.452 14.2263 60.5163 14.0974C57.7878 13.7215 55.2455 14.4932 52.7349 15.3945C44.6354 18.3041 40.3149 26.4349 42.3341 34.7857C43.5082 39.6461 46.2124 43.6052 49.423 47.2931ZM27.0547 74.3675C33.1317 74.7995 38.5319 72.8445 43.2575 69.0272C43.9424 68.4738 44.6144 67.8714 44.9542 67.0096C46.0425 65.6381 46.6056 64.0794 46.468 62.3293C46.3898 61.3375 46.0733 60.4218 44.8954 60.192C44.2477 59.5842 43.4775 59.8269 42.7527 59.9207C39.4639 60.3473 36.1891 60.3662 32.9036 59.8447C29.124 59.245 25.9323 57.7494 23.7465 54.4337C22.8954 53.1399 21.4333 52.8589 19.9426 53.54C17.8684 54.4876 16.7876 56.2507 16.2958 58.3713C15.5235 61.6924 16.3589 64.8113 17.7018 67.8331C19.5031 71.8877 22.7433 74.0606 27.0547 74.3675V74.3675ZM63.6842 37.8717C64.0245 41.4242 65.0379 44.7497 67.1299 47.6744C69.0893 50.4136 71.7417 51.7619 75.1631 51.5543C75.9975 51.5036 76.2892 51.3774 75.9392 50.494C75.3977 49.1246 75.2419 47.6539 74.9798 46.2101C74.4237 43.1339 74.8007 40.0921 75.2063 37.0476C75.5487 35.8212 75.7499 34.5328 76.2585 33.3797C77.9935 29.4346 80.3918 25.9463 83.5625 22.9757C85.6216 21.0465 85.3487 18.5139 83.0927 16.7864C81.5179 15.5811 79.6513 15.1178 77.7659 14.8039C71.7428 13.8002 66.8668 15.5902 64.4452 21.8269C62.4077 27.0734 62.8289 32.4704 63.6842 37.8717V37.8717ZM49.224 95.2851C50.8452 93.1844 52.1724 90.9284 52.2366 88.1542C52.2566 85.7644 51.3084 83.9092 49.2294 82.7043C47.3806 81.6349 45.6742 82.0113 44.4564 83.6935C43.5864 84.8951 42.531 85.8971 41.3111 86.7449C38.0584 89.0052 34.3727 90.0801 30.5435 90.8492C27.608 91.4397 26.6092 93.7631 28.0303 96.4106C30.571 101.148 36.8077 103.385 41.7652 101.322C44.8398 100.042 47.2225 97.8787 49.224 95.2851V95.2851ZM107.588 35.4992C105.441 33.2098 102.548 32.91 99.7944 34.4886C96.2953 36.4943 93.7427 39.5048 91.2737 42.5967C89.5727 44.4298 88.2632 46.5359 87.0751 48.7174C85.9679 50.7512 85.0402 52.8583 84.7134 55.1855C84.4103 57.3525 85.064 58.2677 87.211 58.5886C87.6047 58.6474 88.0065 58.6959 88.4024 58.6924C93.0793 58.6501 97.5277 57.5084 101.876 55.8866C103.239 55.4552 104.582 54.9865 105.868 54.3361C108.624 52.9425 110.67 50.8861 111.343 47.8545C112.4 43.0918 110.847 38.9719 107.588 35.4992V35.4992ZM28.6678 88.8224C34.7529 88.4157 39.6133 85.7531 43.1496 80.7617C44.3641 79.0456 44.8889 77.0706 44.7077 74.9419C44.499 72.4777 43.1447 71.7507 41.0916 73.0332C37.963 74.9877 34.5852 76.2821 30.9254 76.727C27.7644 77.1116 24.7367 76.5663 21.854 75.1576C20.2921 74.3934 19.1984 74.9467 18.7222 76.6084C18.5997 77.0328 18.501 77.4789 18.4881 77.9189C18.3538 82.467 21.628 89.1115 28.6678 88.8224V88.8224ZM83.1801 26.1399C80.449 29.2269 78.4875 32.8415 77.2142 36.7936C75.3411 41.9128 75.518 46.8994 78.2718 51.6762C79.242 53.3578 80.5617 54.7508 82.2881 55.7027C83.5215 56.3839 83.8219 56.2172 83.9389 54.8506C84.0074 54.0529 84.0695 53.2526 84.1989 52.4641C84.8962 48.2024 87.2736 44.7707 89.7183 41.3757C91.6787 38.9428 93.9067 36.765 96.2689 34.7393C98.6991 32.6586 99.9082 29.4605 99.0636 26.8982C98.1937 24.2603 94.8089 21.8906 91.8173 21.7633C88.1095 21.6058 85.4183 23.6094 83.1801 26.1399V26.1399ZM62.1234 92.6715C61.192 90.7828 59.4764 89.8913 57.4233 89.9118C55.4019 89.9318 54.0471 91.0336 53.3055 92.9482C52.07 96.1393 49.8895 98.5361 46.9685 100.293C45.7847 101.005 44.6279 101.767 43.7148 102.832C42.3476 104.427 42.2802 106.128 43.7294 107.598C45.8214 109.719 48.2818 111.16 51.5085 111.114C54.7622 111.142 57.3936 109.629 59.5444 107.182C60.9326 105.604 61.7384 103.751 62.3392 101.706C63.2463 98.6175 63.5791 95.6232 62.1234 92.6715V92.6715ZM66.9919 92.5534C64.3088 92.8463 63.7538 93.6682 64.1669 96.1124C64.4684 97.8975 64.8675 99.6929 64.628 101.535C64.3406 103.767 63.2102 105.624 62.0609 107.483C60.4321 110.117 61.3964 112.574 64.3384 113.567C67.1445 114.516 69.6265 113.854 71.8193 112.082C74.9986 109.512 76.0762 105.96 76.217 101.858C76.1652 101.357 76.0929 100.696 76.026 100.034C75.58 95.6135 71.4003 92.0734 66.9919 92.5534V92.5534ZM86.7148 94.591C84.9798 93.0517 82.4116 92.9396 79.7101 94.3639C77.5895 95.4814 77.2907 96.1884 77.7319 99.1417C78.0636 101.362 78.0733 103.586 77.8236 105.812C77.5275 108.447 78.9351 110.232 81.5713 110.464C82.3237 110.53 83.089 110.518 83.8446 110.468C88.0232 110.191 90.352 107.688 90.3078 102.558C90.1983 100.122 89.4136 96.9839 86.7148 94.591V94.591ZM96.8211 89.9695C94.5334 90.0963 92.0865 90.5245 89.9195 91.9132C88.7335 92.6731 88.6774 93.1111 89.5603 94.0711C90.4777 95.0699 91.1675 96.1819 91.5924 97.4823C92.0865 98.9907 92.0255 100.556 92.1916 102.098C92.4634 104.624 93.8484 105.363 96.0418 104.086C97.9904 102.952 99.5895 101.398 101.054 99.708C102.086 98.5178 103.053 97.2174 103.1 95.593C103.189 92.5642 101.263 89.8687 96.8211 89.9695V89.9695ZM106.769 82.2491C103.861 83.4265 101.511 85.395 99.4374 87.7108C99.2384 87.9336 98.9666 88.1962 99.1036 88.5301C99.2594 88.9081 99.6472 88.7442 99.9325 88.7463C101.625 88.7604 103.122 89.1778 104 90.7801C104.607 91.8906 104.831 93.117 104.935 94.3677C104.956 94.6179 104.858 94.9496 105.188 95.0586C105.498 95.1605 105.676 94.8881 105.831 94.6875C108.119 91.7078 109.659 88.399 110.209 85.1038C110.227 82.3705 108.892 81.3905 106.769 82.2491V82.2491ZM86.4991 59.7045C85.7829 59.6581 85.8142 60.0755 85.7829 60.5248C85.647 62.3989 86.9403 64.1981 89.221 64.7175C94.7367 65.9741 99.8316 65.0799 104.221 61.2755C106.936 59.0174 108.913 56.2313 110.228 52.9522C107.947 54.6969 105.422 55.9605 102.871 57.1821C97.5708 59.0395 92.1409 60.0761 86.4991 59.7045V59.7045ZM68.6837 56.1153C68.7091 57.6437 69.7624 58.9235 71.0023 58.9295C72.199 58.9349 73.3289 57.5553 73.3219 56.0964C73.3143 54.6262 72.2125 53.2337 71.0433 53.217C69.7602 53.1981 68.6595 54.5513 68.6837 56.1153ZM48.0186 74.9726C47.9911 76.0561 48.9025 76.9568 50.0631 76.9956C51.6115 77.0463 53.3908 75.4623 53.4226 74.0051C53.4479 72.8973 52.5748 72.0301 51.3834 71.9805C49.7622 71.9131 48.0569 73.4296 48.0186 74.9726ZM55.9698 59.4936C55.9687 57.8967 54.5433 56.605 52.7878 56.6077C51.4605 56.6109 50.562 57.3956 50.5588 58.5525C50.5555 60.0184 52.1525 61.4281 53.8201 61.4303C55.2061 61.4325 55.9714 60.7437 55.9698 59.4936V59.4936ZM60.0228 87.905C60.1177 88.8693 60.6252 89.4717 61.6947 89.3892C62.8968 89.3612 64.0078 88.145 63.969 86.8922C63.9361 85.8766 63.3898 85.3082 62.3899 85.2893C61.1996 85.2683 59.9057 86.6985 60.0228 87.905ZM80.6243 88.9642C79.7134 88.9621 79.4043 89.702 79.3865 90.5676C79.4329 91.5357 79.8363 92.3539 80.8875 92.3965C81.8787 92.4369 82.2347 91.6236 82.1915 90.7548C82.1457 89.7948 81.6905 88.9669 80.6243 88.9642V88.9642ZM95.0031 86.3464C94.9756 85.477 94.5765 84.7279 93.6801 84.6685C92.8625 84.6141 92.4289 85.4079 92.4559 86.1128C92.4856 86.8981 92.8329 87.754 93.8107 87.7993C94.6951 87.8403 94.9778 87.1678 95.0031 86.3464V86.3464Z" fill="#263A21"/>
<mask id="mask0" mask-type="alpha" maskUnits="userSpaceOnUse" x="16" y="14" width="96" height="100">
<path d="M26.723 53.3222C21.9279 48.4181 21.4533 40.5958 25.3008 34.6681C27.7995 30.8196 31.1826 28.0146 35.4352 26.272C36.434 25.8621 37.4641 25.5774 38.5487 25.6043C39.9547 25.6383 40.4142 26.1631 40.158 27.5572C39.6985 30.0634 39.5868 32.5799 39.9412 35.0964C40.6428 40.0705 42.9905 44.2648 46.2528 47.9915C47.0872 48.9445 48.0089 49.822 48.8917 50.734C49.2763 51.0252 49.67 51.3073 50.0443 51.6125C51.062 52.442 51.1968 53.4236 50.3889 54.5944C49.2574 56.2339 47.606 57.0791 45.7098 57.5127C38.7175 59.1112 32.0666 58.7882 26.723 53.3222ZM49.423 47.2931C51.9572 50.529 55.0152 52.7462 59.3858 52.332C61.6229 52.12 63.7975 51.7155 65.3836 49.8829C65.766 49.4407 66.0028 49.0712 65.4467 48.5378C64.7381 47.8572 64.3789 46.9323 63.9701 46.0516C62.8407 43.6187 62.2804 41.0165 61.6666 38.4294C60.5594 31.5164 60.8711 24.7776 64.0418 18.364C64.7127 17.0065 64.3514 15.91 63.1298 15.0272C62.3472 14.463 61.452 14.2263 60.5163 14.0974C57.7878 13.7215 55.2455 14.4932 52.7349 15.3945C44.6354 18.3041 40.3149 26.4349 42.3341 34.7857C43.5082 39.6461 46.2124 43.6052 49.423 47.2931ZM27.0547 74.3675C33.1317 74.7995 38.5319 72.8445 43.2575 69.0272C43.9424 68.4738 44.6144 67.8714 44.9542 67.0096C46.0425 65.6381 46.6056 64.0794 46.468 62.3293C46.3898 61.3375 46.0733 60.4218 44.8954 60.192C44.2477 59.5842 43.4775 59.8269 42.7527 59.9207C39.4639 60.3473 36.1891 60.3662 32.9036 59.8447C29.124 59.245 25.9323 57.7494 23.7465 54.4337C22.8954 53.1399 21.4333 52.8589 19.9426 53.54C17.8684 54.4876 16.7876 56.2507 16.2958 58.3713C15.5235 61.6924 16.3589 64.8113 17.7018 67.8331C19.5031 71.8877 22.7433 74.0606 27.0547 74.3675V74.3675ZM63.6842 37.8717C64.0245 41.4242 65.0379 44.7497 67.1299 47.6744C69.0893 50.4136 71.7417 51.7619 75.1631 51.5543C75.9975 51.5036 76.2892 51.3774 75.9392 50.494C75.3977 49.1246 75.2419 47.6539 74.9798 46.2101C74.4237 43.1339 74.8007 40.0921 75.2063 37.0476C75.5487 35.8212 75.7499 34.5328 76.2585 33.3797C77.9935 29.4346 80.3918 25.9463 83.5625 22.9757C85.6216 21.0465 85.3487 18.5139 83.0927 16.7864C81.5179 15.5811 79.6513 15.1178 77.7659 14.8039C71.7428 13.8002 66.8668 15.5902 64.4452 21.8269C62.4077 27.0734 62.8289 32.4704 63.6842 37.8717V37.8717ZM49.224 95.2851C50.8452 93.1844 52.1724 90.9284 52.2366 88.1542C52.2566 85.7644 51.3084 83.9092 49.2294 82.7043C47.3806 81.6349 45.6742 82.0113 44.4564 83.6935C43.5864 84.8951 42.531 85.8971 41.3111 86.7449C38.0584 89.0052 34.3727 90.0801 30.5435 90.8492C27.608 91.4397 26.6092 93.7631 28.0303 96.4106C30.571 101.148 36.8077 103.385 41.7652 101.322C44.8398 100.042 47.2225 97.8787 49.224 95.2851V95.2851ZM107.588 35.4992C105.441 33.2098 102.548 32.91 99.7944 34.4886C96.2953 36.4943 93.7427 39.5048 91.2737 42.5967C89.5727 44.4298 88.2632 46.5359 87.0751 48.7174C85.9679 50.7512 85.0402 52.8583 84.7134 55.1855C84.4103 57.3525 85.064 58.2677 87.211 58.5886C87.6047 58.6474 88.0065 58.6959 88.4024 58.6924C93.0793 58.6501 97.5277 57.5084 101.876 55.8866C103.239 55.4552 104.582 54.9865 105.868 54.3361C108.624 52.9425 110.67 50.8861 111.343 47.8545C112.4 43.0918 110.847 38.9719 107.588 35.4992V35.4992ZM28.6678 88.8224C34.7529 88.4157 39.6133 85.7531 43.1496 80.7617C44.3641 79.0456 44.8889 77.0706 44.7077 74.9419C44.499 72.4777 43.1447 71.7507 41.0916 73.0332C37.963 74.9877 34.5852 76.2821 30.9254 76.727C27.7644 77.1116 24.7367 76.5663 21.854 75.1576C20.2921 74.3934 19.1984 74.9467 18.7222 76.6084C18.5997 77.0328 18.501 77.4789 18.4881 77.9189C18.3538 82.467 21.628 89.1115 28.6678 88.8224V88.8224ZM83.1801 26.1399C80.449 29.2269 78.4875 32.8415 77.2142 36.7936C75.3411 41.9128 75.518 46.8994 78.2718 51.6762C79.242 53.3578 80.5617 54.7508 82.2881 55.7027C83.5215 56.3839 83.8219 56.2172 83.9389 54.8506C84.0074 54.0529 84.0695 53.2526 84.1989 52.4641C84.8962 48.2024 87.2736 44.7707 89.7183 41.3757C91.6787 38.9428 93.9067 36.765 96.2689 34.7393C98.6991 32.6586 99.9082 29.4605 99.0636 26.8982C98.1937 24.2603 94.8089 21.8906 91.8173 21.7633C88.1095 21.6058 85.4183 23.6094 83.1801 26.1399V26.1399ZM62.1234 92.6715C61.192 90.7828 59.4764 89.8913 57.4233 89.9118C55.4019 89.9318 54.0471 91.0336 53.3055 92.9482C52.07 96.1393 49.8895 98.5361 46.9685 100.293C45.7847 101.005 44.6279 101.767 43.7148 102.832C42.3476 104.427 42.2802 106.128 43.7294 107.598C45.8214 109.719 48.2818 111.16 51.5085 111.114C54.7622 111.142 57.3936 109.629 59.5444 107.182C60.9326 105.604 61.7384 103.751 62.3392 101.706C63.2463 98.6175 63.5791 95.6232 62.1234 92.6715V92.6715ZM66.9919 92.5534C64.3088 92.8463 63.7538 93.6682 64.1669 96.1124C64.4684 97.8975 64.8675 99.6929 64.628 101.535C64.3406 103.767 63.2102 105.624 62.0609 107.483C60.4321 110.117 61.3964 112.574 64.3384 113.567C67.1445 114.516 69.6265 113.854 71.8193 112.082C74.9986 109.512 76.0762 105.96 76.217 101.858C76.1652 101.357 76.0929 100.696 76.026 100.034C75.58 95.6135 71.4003 92.0734 66.9919 92.5534V92.5534ZM86.7148 94.591C84.9798 93.0517 82.4116 92.9396 79.7101 94.3639C77.5895 95.4814 77.2907 96.1884 77.7319 99.1417C78.0636 101.362 78.0733 103.586 77.8236 105.812C77.5275 108.447 78.9351 110.232 81.5713 110.464C82.3237 110.53 83.089 110.518 83.8446 110.468C88.0232 110.191 90.352 107.688 90.3078 102.558C90.1983 100.122 89.4136 96.9839 86.7148 94.591V94.591ZM96.8211 89.9695C94.5334 90.0963 92.0865 90.5245 89.9195 91.9132C88.7335 92.6731 88.6774 93.1111 89.5603 94.0711C90.4777 95.0699 91.1675 96.1819 91.5924 97.4823C92.0865 98.9907 92.0255 100.556 92.1916 102.098C92.4634 104.624 93.8484 105.363 96.0418 104.086C97.9904 102.952 99.5895 101.398 101.054 99.708C102.086 98.5178 103.053 97.2174 103.1 95.593C103.189 92.5642 101.263 89.8687 96.8211 89.9695V89.9695ZM106.769 82.2491C103.861 83.4265 101.511 85.395 99.4374 87.7108C99.2384 87.9336 98.9666 88.1962 99.1036 88.5301C99.2594 88.9081 99.6472 88.7442 99.9325 88.7463C101.625 88.7604 103.122 89.1778 104 90.7801C104.607 91.8906 104.831 93.117 104.935 94.3677C104.956 94.6179 104.858 94.9496 105.188 95.0586C105.498 95.1605 105.676 94.8881 105.831 94.6875C108.119 91.7078 109.659 88.399 110.209 85.1038C110.227 82.3705 108.892 81.3905 106.769 82.2491V82.2491ZM86.4991 59.7045C85.7829 59.6581 85.8142 60.0755 85.7829 60.5248C85.647 62.3989 86.9403 64.1981 89.221 64.7175C94.7367 65.9741 99.8316 65.0799 104.221 61.2755C106.936 59.0174 108.913 56.2313 110.228 52.9522C107.947 54.6969 105.422 55.9605 102.871 57.1821C97.5708 59.0395 92.1409 60.0761 86.4991 59.7045V59.7045ZM68.6837 56.1153C68.7091 57.6437 69.7624 58.9235 71.0023 58.9295C72.199 58.9349 73.3289 57.5553 73.3219 56.0964C73.3143 54.6262 72.2125 53.2337 71.0433 53.217C69.7602 53.1981 68.6595 54.5513 68.6837 56.1153ZM48.0186 74.9726C47.9911 76.0561 48.9025 76.9568 50.0631 76.9956C51.6115 77.0463 53.3908 75.4623 53.4226 74.0051C53.4479 72.8973 52.5748 72.0301 51.3834 71.9805C49.7622 71.9131 48.0569 73.4296 48.0186 74.9726ZM55.9698 59.4936C55.9687 57.8967 54.5433 56.605 52.7878 56.6077C51.4605 56.6109 50.562 57.3956 50.5588 58.5525C50.5555 60.0184 52.1525 61.4281 53.8201 61.4303C55.2061 61.4325 55.9714 60.7437 55.9698 59.4936V59.4936ZM60.0228 87.905C60.1177 88.8693 60.6252 89.4717 61.6947 89.3892C62.8968 89.3612 64.0078 88.145 63.969 86.8922C63.9361 85.8766 63.3898 85.3082 62.3899 85.2893C61.1996 85.2683 59.9057 86.6985 60.0228 87.905ZM80.6243 88.9642C79.7134 88.9621 79.4043 89.702 79.3865 90.5676C79.4329 91.5357 79.8363 92.3539 80.8875 92.3965C81.8787 92.4369 82.2347 91.6236 82.1915 90.7548C82.1457 89.7948 81.6905 88.9669 80.6243 88.9642V88.9642ZM95.0031 86.3464C94.9756 85.477 94.5765 84.7279 93.6801 84.6685C92.8625 84.6141 92.4289 85.4079 92.4559 86.1128C92.4856 86.8981 92.8329 87.754 93.8107 87.7993C94.6951 87.8403 94.9778 87.1678 95.0031 86.3464V86.3464Z" fill="white"/>
</mask>
<g mask="url(#mask0)">
<path fill-rule="evenodd" clip-rule="evenodd" d="M41.1533 60.9696C41.1533 48.7945 53.4881 38.9238 70.3554 38.9238C87.2226 38.9238 100.897 48.7945 100.897 60.9696C100.897 67.9247 106.471 88.9647 87.6535 89.9678C82.4782 90.2434 84.6544 92.8386 80.7917 93.3639C79.3636 93.557 72.9538 92.0981 71.0031 92.0981C54.1358 92.0981 41.1533 73.1448 41.1533 60.9696V60.9696Z" fill="#95C11F"/>
</g>
</svg>
