<svg width="178" height="186" xmlns="http://www.w3.org/2000/svg" xmlns:xlink="http://www.w3.org/1999/xlink"><defs><path d="M19.915 72.993c-8.891-9.093-9.771-23.597-2.637-34.588 4.633-7.136 10.906-12.337 18.791-15.568 1.852-.76 3.762-1.288 5.773-1.238 2.607.063 3.459 1.036 2.984 3.621-.852 4.647-1.059 9.313-.402 13.979 1.301 9.223 5.654 17 11.703 23.91 1.547 1.767 3.256 3.394 4.893 5.085.713.54 1.443 1.063 2.137 1.629 1.887 1.538 2.137 3.358.639 5.529-2.098 3.04-5.16 4.607-8.676 5.411-12.965 2.964-25.297 2.365-35.205-7.77zm42.09-11.179c4.699 6 10.369 10.111 18.473 9.343 4.148-.393 8.18-1.143 11.121-4.541.709-.82 1.148-1.505.117-2.494-1.314-1.262-1.98-2.977-2.738-4.61-2.094-4.511-3.133-9.336-4.271-14.133-2.053-12.818-1.475-25.313 4.404-37.205 1.244-2.517.574-4.55-1.691-6.187C85.969.941 84.309.502 82.574.263c-5.059-.697-9.773.734-14.428 2.405-15.018 5.395-23.029 20.471-19.285 35.955 2.177 9.012 7.191 16.353 13.144 23.191zM20.53 112.015c11.268.801 21.281-2.824 30.043-9.902 1.27-1.026 2.516-2.143 3.146-3.741 2.018-2.543 3.062-5.433 2.807-8.678-.145-1.839-.732-3.537-2.916-3.963-1.201-1.127-2.629-.677-3.973-.503-6.098.791-12.17.826-18.262-.141-7.008-1.112-12.926-3.885-16.979-10.033-1.578-2.399-4.289-2.92-7.053-1.657-3.846 1.757-5.85 5.026-6.762 8.958-1.432 6.158.117 11.941 2.607 17.544 3.34 7.518 9.348 11.547 17.342 12.116zm67.918-67.67c.631 6.587 2.51 12.753 6.389 18.176 3.633 5.079 8.551 7.579 14.895 7.194 1.547-.094 2.088-.328 1.439-1.966-1.004-2.539-1.293-5.266-1.779-7.943-1.031-5.704-.332-11.344.42-16.989.635-2.274 1.008-4.663 1.951-6.801 3.217-7.315 7.664-13.783 13.543-19.291 3.818-3.577 3.312-8.273-.871-11.476-2.92-2.235-6.381-3.094-9.877-3.676C103.39-.288 94.349 3.031 89.859 14.595c-3.778 9.728-2.997 19.735-1.411 29.75zM61.636 150.8c3.006-3.895 5.467-8.078 5.586-13.222.037-4.431-1.721-7.871-5.576-10.105-3.428-1.983-6.592-1.285-8.85 1.834-1.613 2.228-3.57 4.086-5.832 5.658-6.031 4.191-12.865 6.184-19.965 7.61-5.443 1.095-7.295 5.403-4.66 10.312 4.711 8.784 16.275 12.932 25.467 9.106 5.701-2.372 10.119-6.384 13.83-11.193zM169.854 39.946c-3.982-4.245-9.346-4.801-14.451-1.874-6.488 3.719-11.221 9.301-15.799 15.034-3.154 3.399-5.582 7.304-7.785 11.349-2.053 3.771-3.773 7.678-4.379 11.993-.562 4.018.65 5.715 4.631 6.31.73.109 1.475.199 2.209.192383C142.952 82.872 151.2 80.755 159.262 77.748c2.527-.8 5.018-1.669 7.402-2.875 5.111-2.584 8.904-6.397 10.152-12.018 1.96-8.831-.919-16.47-6.962-22.909zM23.521 138.817c11.283-.754 20.295-5.691 26.852-14.946 2.252-3.182 3.225-6.844 2.889-10.791-.387-4.569-2.898-5.917-6.705-3.539-5.801 3.624-12.064 6.024-18.85 6.849-5.861.713-11.475-.298-16.82-2.91-2.896-1.417-4.924-.391-5.807 2.69-.227.787-.41 1.614-.434 2.43-.249 8.433 5.822 20.753 18.875 20.217zM124.597 22.592c-5.064 5.724-8.701 12.426-11.062 19.754-3.473 9.492-3.145 18.738 1.961 27.595 1.799 3.118 4.246 5.701 7.447 7.466 2.287 1.263 2.844.954 3.061-1.58.127-1.479.242-2.963.482-4.425 1.293-7.902 5.701-14.265 10.234-20.56 3.635-4.511 7.766-8.549 12.146-12.305 4.506-3.858 6.748-9.788 5.182-14.539-1.613-4.891-7.889-9.285-13.436-9.521-6.875-.292-11.865 3.423-16.015 8.115zM85.554 145.954c-1.727-3.502-4.908-5.155-8.715-5.117-3.748.037-6.26 2.08-7.635 5.63-2.291 5.917-6.334 10.361-11.75 13.618-2.195 1.32-4.34 2.733-6.033 4.708-2.535 2.958-2.66 6.111.027 8.838 3.879 3.932 8.441 6.604 14.424 6.518 6.033.052 10.912-2.752 14.9-7.289 2.574-2.927 4.068-6.362 5.182-10.154 1.682-5.727 2.299-11.279-.4-16.752zm9.027-.219c-4.975.543-6.004 2.067-5.238 6.599.559 3.31 1.299 6.639.855 10.055-.533 4.138-2.629 7.582-4.76 11.028-3.02 4.885-1.232 9.44 4.223 11.282 5.203 1.758 9.805.531 13.871-2.755 5.895-4.765 7.893-11.351 8.154-18.957-.096-.929-.23-2.155-.354-3.382-.827-8.196-8.577-14.76-16.751-13.87zm36.57 3.778c-3.217-2.854-7.979-3.062-12.988-.421-3.932 2.072-4.486 3.383-3.668 8.859.615 4.117.633 8.241.17 12.367-.549 4.886 2.061 8.196 6.949 8.627 1.395.122 2.814.1 4.215.007 7.748-.514 12.066-5.155 11.984-14.666-.203-4.517-1.658-10.336-6.662-14.773zm18.739-8.569c-4.242.235-8.779 1.029-12.797 3.604-2.199 1.409-2.303 2.221-.666 4.001 1.701 1.852 2.98 3.914 3.768 6.325.916 2.797.803 5.7 1.111 8.559.504 4.684 3.072 6.054 7.139 3.686 3.613-2.104 6.578-4.985 9.293-8.118 1.914-2.207 3.707-4.618 3.795-7.63.165-5.616-3.407-10.614-11.643-10.427zm18.445-14.315c-5.391 2.183-9.75 5.833-13.594 10.127-.369.413-.873.9-.619 1.519.289.701 1.008.397 1.537.401 3.139.026 5.914.8 7.541 3.771 1.127 2.059 1.541 4.333 1.734 6.652.039.464-.143 1.079.469 1.281.576.189.906-.316 1.193-.688 4.242-5.525 7.098-11.66 8.117-17.77.034-5.068-2.442-6.885-6.378-5.293zm-37.584-41.802c-1.328-.086-1.27.688-1.328 1.521-.252 3.475 2.146 6.811 6.375 7.774 10.227 2.33 19.674.672 27.812-6.382 5.035-4.187 8.701-9.353 11.139-15.433-4.23 3.235-8.912 5.578-13.641 7.843-9.828 3.444-19.896 5.366-30.357 4.677zm-33.033-6.655c.047 2.834 2 5.207 4.299 5.21803 2.219.00997 4.314-2.54803 4.30106-5.25303-.01406-2.726-2.05706-5.308-4.22506-5.339-2.379-.035-4.42 2.474-4.375 5.374zm-38.317 34.965c-.051 2.009 1.639 3.679 3.791 3.751 2.871.094 6.17-2.843 6.229-5.545.047-2.054-1.572-3.662-3.781-3.754-3.006-.125-6.168 2.687-6.239 5.548zm14.743005-28.701C74.142 81.475 71.499 79.08 68.244 79.084992 65.783 79.091 64.117 80.546 64.11099 82.691c-.00599 2.718 2.95501 5.332 6.04701 5.33601 2.57.00399 3.989-1.27301 3.986005-3.59101zm7.514995 52.68c.176 1.788 1.117 2.905 3.1 2.752 2.229-.052 4.289-2.307 4.217-4.63-.061-1.883-1.074-2.937-2.928-2.972-2.207-.039-4.606 2.613-4.389 4.85zm38.199 1.963991c-1.689-.003991-2.262 1.368009-2.295 2.973009.086 1.795.834 3.312 2.783 3.391 1.838.075 2.498-1.433 2.418-3.044-.085-1.78-.929-3.315-2.906-3.320009zm26.661-4.853991c-.051-1.612-.791-3.001-2.453-3.111-1.516-.101-2.32 1.371-2.27 2.678.055 1.456.699 3.043 2.512 3.127 1.64.076 2.164-1.171 2.211-2.694z" id="a"/></defs><g fill="none" fill-rule="evenodd"><path d="M19.915 72.993c-8.891-9.093-9.771-23.597-2.637-34.588 4.633-7.136 10.906-12.337 18.791-15.568 1.852-.76 3.762-1.288 5.773-1.238 2.607.063 3.459 1.036 2.984 3.621-.852 4.647-1.059 9.313-.402 13.979 1.301 9.223 5.654 17 11.703 23.91 1.547 1.767 3.256 3.394 4.893 5.085.713.54 1.443 1.063 2.137 1.629 1.887 1.538 2.137 3.358.639 5.529-2.098 3.04-5.16 4.607-8.676 5.411-12.965 2.964-25.297 2.365-35.205-7.77zm42.09-11.179c4.699 6 10.369 10.111 18.473 9.343 4.148-.393 8.18-1.143 11.121-4.541.709-.82 1.148-1.505.117-2.494-1.314-1.262-1.98-2.977-2.738-4.61-2.094-4.511-3.133-9.336-4.271-14.133-2.053-12.818-1.475-25.313 4.404-37.205 1.244-2.517.574-4.55-1.691-6.187C85.969.941 84.309.502 82.574.263c-5.059-.697-9.773.734-14.428 2.405-15.018 5.395-23.029 20.471-19.285 35.955 2.177 9.012 7.191 16.353 13.144 23.191zM20.53 112.015c11.268.801 21.281-2.824 30.043-9.902 1.27-1.026 2.516-2.143 3.146-3.741 2.018-2.543 3.062-5.433 2.807-8.678-.145-1.839-.732-3.537-2.916-3.963-1.201-1.127-2.629-.677-3.973-.503-6.098.791-12.17.826-18.262-.141-7.008-1.112-12.926-3.885-16.979-10.033-1.578-2.399-4.289-2.92-7.053-1.657-3.846 1.757-5.85 5.026-6.762 8.958-1.432 6.158.117 11.941 2.607 17.544 3.34 7.518 9.348 11.547 17.342 12.116zm67.918-67.67c.631 6.587 2.51 12.753 6.389 18.176 3.633 5.079 8.551 7.579 14.895 7.194 1.547-.094 2.088-.328 1.439-1.966-1.004-2.539-1.293-5.266-1.779-7.943-1.031-5.704-.332-11.344.42-16.989.635-2.274 1.008-4.663 1.951-6.801 3.217-7.315 7.664-13.783 13.543-19.291 3.818-3.577 3.312-8.273-.871-11.476-2.92-2.235-6.381-3.094-9.877-3.676C103.39-.288 94.349 3.031 89.859 14.595c-3.778 9.728-2.997 19.735-1.411 29.75zM61.636 150.8c3.006-3.895 5.467-8.078 5.586-13.222.037-4.431-1.721-7.871-5.576-10.105-3.428-1.983-6.592-1.285-8.85 1.834-1.613 2.228-3.57 4.086-5.832 5.658-6.031 4.191-12.865 6.184-19.965 7.61-5.443 1.095-7.295 5.403-4.66 10.312 4.711 8.784 16.275 12.932 25.467 9.106 5.701-2.372 10.119-6.384 13.83-11.193zM169.854 39.946c-3.982-4.245-9.346-4.801-14.451-1.874-6.488 3.719-11.221 9.301-15.799 15.034-3.154 3.399-5.582 7.304-7.785 11.349-2.053 3.771-3.773 7.678-4.379 11.993-.562 4.018.65 5.715 4.631 6.31.73.109 1.475.199 2.209.192383C142.952 82.872 151.2 80.755 159.262 77.748c2.527-.8 5.018-1.669 7.402-2.875 5.111-2.584 8.904-6.397 10.152-12.018 1.96-8.831-.919-16.47-6.962-22.909zM23.521 138.817c11.283-.754 20.295-5.691 26.852-14.946 2.252-3.182 3.225-6.844 2.889-10.791-.387-4.569-2.898-5.917-6.705-3.539-5.801 3.624-12.064 6.024-18.85 6.849-5.861.713-11.475-.298-16.82-2.91-2.896-1.417-4.924-.391-5.807 2.69-.227.787-.41 1.614-.434 2.43-.249 8.433 5.822 20.753 18.875 20.217zM124.597 22.592c-5.064 5.724-8.701 12.426-11.062 19.754-3.473 9.492-3.145 18.738 1.961 27.595 1.799 3.118 4.246 5.701 7.447 7.466 2.287 1.263 2.844.954 3.061-1.58.127-1.479.242-2.963.482-4.425 1.293-7.902 5.701-14.265 10.234-20.56 3.635-4.511 7.766-8.549 12.146-12.305 4.506-3.858 6.748-9.788 5.182-14.539-1.613-4.891-7.889-9.285-13.436-9.521-6.875-.292-11.865 3.423-16.015 8.115zM85.554 145.954c-1.727-3.502-4.908-5.155-8.715-5.117-3.748.037-6.26 2.08-7.635 5.63-2.291 5.917-6.334 10.361-11.75 13.618-2.195 1.32-4.34 2.733-6.033 4.708-2.535 2.958-2.66 6.111.027 8.838 3.879 3.932 8.441 6.604 14.424 6.518 6.033.052 10.912-2.752 14.9-7.289 2.574-2.927 4.068-6.362 5.182-10.154 1.682-5.727 2.299-11.279-.4-16.752zm9.027-.219c-4.975.543-6.004 2.067-5.238 6.599.559 3.31 1.299 6.639.855 10.055-.533 4.138-2.629 7.582-4.76 11.028-3.02 4.885-1.232 9.44 4.223 11.282 5.203 1.758 9.805.531 13.871-2.755 5.895-4.765 7.893-11.351 8.154-18.957-.096-.929-.23-2.155-.354-3.382-.827-8.196-8.577-14.76-16.751-13.87zm36.57 3.778c-3.217-2.854-7.979-3.062-12.988-.421-3.932 2.072-4.486 3.383-3.668 8.859.615 4.117.633 8.241.17 12.367-.549 4.886 2.061 8.196 6.949 8.627 1.395.122 2.814.1 4.215.007 7.748-.514 12.066-5.155 11.984-14.666-.203-4.517-1.658-10.336-6.662-14.773zm18.739-8.569c-4.242.235-8.779 1.029-12.797 3.604-2.199 1.409-2.303 2.221-.666 4.001 1.701 1.852 2.98 3.914 3.768 6.325.916 2.797.803 5.7 1.111 8.559.504 4.684 3.072 6.054 7.139 3.686 3.613-2.104 6.578-4.985 9.293-8.118 1.914-2.207 3.707-4.618 3.795-7.63.165-5.616-3.407-10.614-11.643-10.427zm18.445-14.315c-5.391 2.183-9.75 5.833-13.594 10.127-.369.413-.873.9-.619 1.519.289.701 1.008.397 1.537.401 3.139.026 5.914.8 7.541 3.771 1.127 2.059 1.541 4.333 1.734 6.652.039.464-.143 1.079.469 1.281.576.189.906-.316 1.193-.688 4.242-5.525 7.098-11.66 8.117-17.77.034-5.068-2.442-6.885-6.378-5.293zm-37.584-41.802c-1.328-.086-1.27.688-1.328 1.521-.252 3.475 2.146 6.811 6.375 7.774 10.227 2.33 19.674.672 27.812-6.382 5.035-4.187 8.701-9.353 11.139-15.433-4.23 3.235-8.912 5.578-13.641 7.843-9.828 3.444-19.896 5.366-30.357 4.677zm-33.033-6.655c.047 2.834 2 5.207 4.299 5.21803 2.219.00997 4.314-2.54803 4.30106-5.25303-.01406-2.726-2.05706-5.308-4.22506-5.339-2.379-.035-4.42 2.474-4.375 5.374zm-38.317 34.965c-.051 2.009 1.639 3.679 3.791 3.751 2.871.094 6.17-2.843 6.229-5.545.047-2.054-1.572-3.662-3.781-3.754-3.006-.125-6.168 2.687-6.239 5.548zm14.743005-28.701C74.142 81.475 71.499 79.08 68.244 79.084992 65.783 79.091 64.117 80.546 64.11099 82.691c-.00599 2.718 2.95501 5.332 6.04701 5.33601 2.57.00399 3.989-1.27301 3.986005-3.59101zm7.514995 52.68c.176 1.788 1.117 2.905 3.1 2.752 2.229-.052 4.289-2.307 4.217-4.63-.061-1.883-1.074-2.937-2.928-2.972-2.207-.039-4.606 2.613-4.389 4.85zm38.199 1.963991c-1.689-.003991-2.262 1.368009-2.295 2.973009.086 1.795.834 3.312 2.783 3.391 1.838.075 2.498-1.433 2.418-3.044-.085-1.78-.929-3.315-2.906-3.320009zm26.661-4.853991c-.051-1.612-.791-3.001-2.453-3.111-1.516-.101-2.32 1.371-2.27 2.678.055 1.456.699 3.043 2.512 3.127 1.64.076 2.164-1.171 2.211-2.694z" fill="#263A21"/><mask id="b" fill="#fff"><use xlink:href="#a"/></mask><path d="M46.671 87.172c0-22.575 22.871-40.877 54.146-40.877 31.275 0 56.629 18.302 56.629 40.877 0 12.896 10.336 51.908-24.555 53.768-9.596.511-5.561 5.323-12.723 6.297-2.648.358-14.533-2.347-18.15-2.347-31.275 0-55.347-35.143-55.347-57.718z" fill="#95C11F" mask="url(#b)"/></g></svg>
