<svg viewBox="0 0 139 158" xmlns="http://www.w3.org/2000/svg">
    <g fill="none" fill-rule="evenodd">
        <path fill="#41B883" fill-rule="nonzero" d="M102.295646 72.1832018l-10.8313036-2.4061067 8.4243473 12.0305336v37.2946543l28.8834763-24.0610673V54.1374014l-13.23826 4.8122134zM34.900867 72.1832018l10.83130368-2.4061067-8.42434728 12.0305336v37.2946543L8.4243468 95.0412157V54.1374014l13.2382601 4.8122134z"/>
        <path fill="#41B883" d="M40.9182584 84.2137354l9.6278255-14.4366403 6.017391 3.6091601h24.0695638l6.0173909-3.6091601 9.6278255 14.4366403v54.1374016l-7.2208691 10.82748-8.4243473 8.421374H56.5634749l-8.4243473-8.421374-7.2208692-10.82748z"/>
        <path fill="#41B883" fill-rule="nonzero" d="M99.8886897 141.960297l15.6452163-15.639694v-15.639694l-15.6452163 13.233587zM37.3078246 141.960297l-15.6452165-15.639694v-15.639694l15.6452165 13.233587z"/>
        <path d="M89.4422148 12.342l4.429084 10.5160139-14.4417383 45.7160278h-8.4243473L71.0042148 56.994l18.438-44.652zm-41.244-1.055l17.993 46.482.0000856 10.8050417h-7.2208691L43.3252148 22.8580139l4.873-11.5710139zM66.1913004 0l-.0000856 46.688-6.818-17.614 2.0041728 1.0023341V0h4.8139128zm9.6278255 0v30.0763341L78.3042148 28.833l-7.3 17.68L71.0052132 0h4.8139127zm8.4243473 0l3.0127416 7.154-6.624 16.042L80.6330387 0h3.6104345zM56.5634749 0l-.0002601 21.816-6.13-15.835L52.9530403 0h3.6104346z" fill="#455C71"/>
        <path d="M138.399992 19.2488538l-7.220869 30.0763341-51.7495625 19.2488538h-1.2034782l14.4417383-45.7160278 45.7321714-3.6091601zM0 19.2488538l44.528693 3.6091601 15.6452165 45.7160278h-1.2034782L7.22086913 49.3251879 0 19.2488538z" fill="#41B883" fill-rule="nonzero"/>
        <path fill="#455C71" fill-rule="nonzero" d="M96.2782551 19.2488538l25.2730419-2.4061067L104.702602 0H87.8539078zM40.9182582 19.2488538l-25.273042-2.4061067L32.4939109 0h16.8486946zM18.7999989 20.7999988l25.9999984 1.9999998 15.5999991 45.7999973h-1.5999999l-16.799999-6.1999996zM119.199993 20.7999988l-26.7999985 1.9999998-14.7999991 45.7999973 1.9999999-.04 15.599999-5.7599996zM48.3999971 72.7999957l1.9999999-3.1999998 6.7999996 3.1999998h23.9999986l5.1999997-3.1999998 2.3999998 3.1999998-20.1999988 34.3999983z"/>
        <path d="M90.2104053 0L68.485709 52.6144989 48.1188062 0h42.0915991z" fill="#41B883" fill-rule="nonzero"/>
    </g>
</svg>
