<svg fill="none" xmlns="http://www.w3.org/2000/svg" viewBox="0 0 94 52">
  <path fill-rule="evenodd" clip-rule="evenodd" d="M23.5 17.09C26.633 5.698 34.467 0 47 0c18.8 0 21.15 12.818 30.55 14.954C83.817 16.38 89.3 14.243 94 8.546c-3.133 11.394-10.967 17.09-23.5 17.09-18.8 0-21.15-12.818-30.55-14.954-6.267-1.425-11.75.711-16.45 6.409zM0 42.728c3.133-11.393 10.967-17.09 23.5-17.09 18.8 0 21.15 12.818 30.55 14.954 6.267 1.425 11.75-.712 16.45-6.41C67.367 45.576 59.533 51.274 47 51.274c-18.8 0-21.15-12.818-30.55-14.955-6.267-1.424-11.75.712-16.45 6.41z" fill="url(#paint0_linear)"/>
  <defs>
    <linearGradient id="paint0_linear" x1="0" y1="-45.575" x2="81.427" y2="103.706" gradientUnits="userSpaceOnUse">
      <stop stop-color="#2383AE"/>
      <stop offset="1" stop-color="#6DD7B9"/>
    </linearGradient>
  </defs>
</svg>
