<svg width="128" height="128" viewBox="0 0 128 128" fill="none" xmlns="http://www.w3.org/2000/svg">
<path fill-rule="evenodd" clip-rule="evenodd" d="M39 55.1809C42.333 43.0617 50.667 37 64 37C84 37 86.5 50.6362 96.5 52.9085C103.167 54.4255 109 52.1521 114 46.0915C110.667 58.2128 102.333 64.2723 89 64.2723C69 64.2723 66.5 50.6362 56.5 48.3638C49.833 46.8479 44 49.1202 39 55.1819V55.1809ZM14 82.4553C17.333 70.3351 25.667 64.2745 39 64.2745C59 64.2745 61.5 77.9106 71.5 80.183C78.167 81.6989 84 79.4255 89 73.3638C85.667 85.4851 77.333 91.5468 64 91.5468C44 91.5468 41.5 77.9106 31.5 75.6372C24.833 74.1223 19 76.3947 14 82.4564V82.4553Z" fill="url(#paint0_linear)"/>
<defs>
<linearGradient id="paint0_linear" x1="14" y1="-11.484" x2="100.624" y2="147.326" gradientUnits="userSpaceOnUse">
<stop stop-color="#2383AE"/>
<stop offset="1" stop-color="#6DD7B9"/>
</linearGradient>
</defs>
</svg>
