<svg version="1.1" id="Layer_1" xmlns="http://www.w3.org/2000/svg" x="0" y="0" viewBox="0 0 286.6 319.5" style="enable-background:new 0 0 286.6 319.5" xml:space="preserve">
<style>.st0{fill:none;stroke:#7703fc;stroke-width:14;stroke-miterlimit:10}</style>
<path class="st0" d="M279.6 221.1V98.4c0-10.7-5.7-20.6-15-26L158.3 11c-9.3-5.4-20.7-5.4-30 0L22 72.4c-9.3 5.4-15 15.3-15 26v122.8c0 10.7 5.7 20.6 15 26l106.3 61.4c9.3 5.4 20.7 5.4 30 0l106.3-61.4c9.3-5.4 15-15.3 15-26.1z"/>
<path class="st0" d="m180.7 241.5 44.3-44.3c7.6-7.6 10.5-18.6 7.8-29l-16.2-60.5c-2.8-10.4-10.9-18.4-21.2-21.2l-60.5-16.2c-10.4-2.8-21.4.2-29 7.8l-44.3 44.3c-7.6 7.6-10.5 18.6-7.8 29L70 211.9c2.8 10.4 10.9 18.4 21.2 21.2l60.5 16.2c10.4 2.7 21.5-.3 29-7.8z"/>
</svg>
