<svg xmlns="http://www.w3.org/2000/svg" viewBox="0 0 43.4 43.4">
  <g transform="matrix(.01864 0 0 .01864 -131.8587208 53.05023158)">
    <circle cx="8238.4" cy="-1682.4" r="1163.9" fill="#fff"/>
    <path d="M8428.9-1682.4c0 105.2-85.2 190.4-190.4 190.4s-190.4-85.3-190.4-190.4c0-105.2 85.3-190.4 190.4-190.4 105.1 0 190.4 85.2 190.4 190.4z" fill="#263238"/>
    <path d="M9083.7-2170.5c-41.4-71.2-91.7-136.9-149.6-195.5L8714-2238.9c-68.6-58.6-146.6-103.5-229.8-133.2-75.2 76.2-134.9 161.3-177.9 253.8 245-16.7 498.1 72 733 255.6l138.5-80c-21.6-79.6-53.2-156.1-94.1-227.8z" fill="#1976d2"/>
    <path d="M9083.7-1194.4c41-71.5 72.8-147.9 94.6-227.3l-220.1-127.1c16.5-88.7 16.3-178.7.4-265.6-103.5-27-207.1-36.2-308.8-27.1 137 203.9 186.7 467.4 145.2 762.6l138.5 80c58.2-58.7 108.7-124.3 150.2-195.5z" fill="#42a5f5"/>
    <path d="M8238.5-706.4c82.4-.2 164.4-10.9 244.1-31.8v-254.2c85.1-30.1 162.9-75.2 230.3-132.4-28.4-103.2-72.2-197.4-130.9-281-108.1 220.5-311.4 395.4-587.8 507.1v160c79.7 21.1 161.8 31.9 244.3 32.3z" fill="#1976d2"/>
    <path d="M7393.2-1194.3c41.4 71.2 91.7 136.9 149.6 195.5l220.1-127.1c68.6 58.6 146.6 103.5 229.8 133.2 75.2-76.2 134.9-161.3 177.9-253.8-245 16.7-498.1-72-733-255.6l-138.5 80c21.6 79.6 53.2 156.1 94.1 227.8z" fill="#42a5f5"/>
    <path d="M7393.1-2170.4c-41 71.5-72.8 147.9-94.6 227.3l220.1 127.1c-16.5 88.7-16.3 178.7-.4 265.6 103.5 27 207.1 36.2 308.8 27.1-137-203.9-186.7-467.4-145.2-762.6l-138.5-80c-58.1 58.6-108.6 124.3-150.2 195.5z" fill="#1976d2"/>
    <path d="M8238.4-2658.4c-82.4.2-164.4 10.9-244.1 31.8v254.2c-85.1 30.1-162.9 75.2-230.3 132.4 28.4 103.2 72.2 197.4 130.9 281 108.1-220.5 311.4-395.4 587.8-507.1v-160c-79.7-21.1-161.8-31.9-244.3-32.3z" fill="#42a5f5"/>
  </g>
</svg>
