<svg fill="none" xmlns="http://www.w3.org/2000/svg" viewBox="0 0 71 71">
  <path d="M0 61.845A9.154 9.154 0 009.155 71h52.69A9.154 9.154 0 0071 61.845V9.155A9.154 9.154 0 0061.845 0H9.155A9.154 9.154 0 000 9.155v52.69z" fill="#563D7C"/>
  <path d="M29.442 31.406V21.35h8.85c.844 0 1.657.07 2.44.21.782.141 1.474.392 2.077.753a4.01 4.01 0 011.444 1.506c.362.642.542 1.465.542 2.468 0 1.806-.542 3.111-1.625 3.914-1.084.802-2.469 1.204-4.155 1.204h-9.573zm-9.452-17.4v42.988h20.832c1.926 0 3.803-.24 5.629-.722 1.826-.482 3.452-1.225 4.877-2.228 1.425-1.003 2.559-2.298 3.402-3.883.843-1.586 1.264-3.462 1.264-5.63 0-2.69-.652-4.987-1.957-6.894-1.304-1.906-3.281-3.24-5.93-4.003 1.926-.924 3.381-2.108 4.365-3.553.983-1.445 1.475-3.25 1.475-5.418 0-2.007-.331-3.693-.994-5.058-.662-1.364-1.595-2.458-2.8-3.281-1.203-.823-2.648-1.415-4.334-1.776-1.686-.361-3.552-.542-5.6-.542H19.99zm9.452 35.643v-11.8h10.296c2.047 0 3.693.47 4.937 1.414 1.244.943 1.866 2.519 1.866 4.726 0 1.124-.19 2.047-.572 2.77a4.546 4.546 0 01-1.535 1.716c-.642.421-1.385.722-2.228.903-.843.18-1.726.27-2.649.27H29.442z" fill="#fff"/>
</svg>
