<svg viewBox="0 0 38 48" xmlns="http://www.w3.org/2000/svg">
  <path d="M142.135441 26.1578077zM33.416502 27.2175511c-.009494 1.5770171-.828661 1.9287963-.828661 1.9287963s-14.1357932 8.1681613-15.0548454 8.6799277c-.9106596.390881-1.5193253 0-1.5193253 0S1.2225706 29.2479572.6826962 28.8708444c-.5400119-.3771128-.5525319-.964467-.5525319-.964467s.0148589-16.98646 0-17.773041c-.014859-.7867187.9667933-1.3777903.9667933-1.3777903L15.8755373.2134387c.9098341-.4802371 1.7955913 0 1.7955913 0s13.0554944 7.588655 14.5023134 8.404287c1.418065.674232 1.24306 2.0666167 1.24306 2.0666167s.008805 15.0675768 0 16.5332087zm-5.9004915-17.0484172c-3.0259932-1.7416856-10.1544263-5.8720276-10.1544263-5.8720276s-.6954803-.3758737-1.4098095 0L4.3487406 10.98215s-.7707381.4627514-.7590436 1.0783305c.0116945.6155792 0 13.9093903 0 13.9093903s.0097684.4597224.4337981.7547764c.4238922.2950539 12.0366947 7.0085979 12.0366947 7.0085979s.4779622.3059308 1.1928417 0c.7216211-.4005189 11.820002-6.7929869 11.820002-6.7929869s.643199-.2753653.6506284-1.5095526c.0020638-.3559097.0028893-1.7374175.0030268-3.4731827l-13.0666385 7.9177165V26.846221c0-1.2441005.9630787-2.0652399.9630787-2.0652399l11.5576318-6.9644018c.4361371-.4554542.5261161-1.1850346.5446898-1.4609506-.0004127-1.265166-.0009631-2.3703446-.0013758-3.0704609l-13.0640245 7.9160643V18.034531c0-1.2441005.825496-1.7898746.825496-1.7898746l10.0304643-6.0755225z" fill="#409EFF" fill-rule="evenodd"/>
</svg>
