<svg xmlns="http://www.w3.org/2000/svg" width="512" height="512" fill="none"><path fill="#41B38A" d="M288.041 144.496H64.779a58.355 58.355 0 0 0-22.48 4.428 58.582 58.582 0 0 0-19.072 12.749 58.9 58.9 0 0 0-12.75 19.123A59.112 59.112 0 0 0 6 203.368v133.081a59.186 59.186 0 0 0 16.741 41.266 58.627 58.627 0 0 0 40.68 17.753l23.145 40.229c4.034 7.006 10.625 7.104 14.649.089l23.125-40.102h163.701a58.788 58.788 0 0 0 41.583-17.403c11.019-11.106 17.204-26.15 17.196-41.832V203.368a59.116 59.116 0 0 0-4.477-22.572 58.908 58.908 0 0 0-12.75-19.123 58.58 58.58 0 0 0-19.072-12.749 58.356 58.356 0 0 0-22.48-4.428Z"/><path fill="#108775" d="M447.25 66H223.773a58.757 58.757 0 0 0-41.438 17.28c-11.003 11.028-17.222 25.978-17.302 41.592H288.08a77.622 77.622 0 0 1 29.912 5.855 77.9 77.9 0 0 1 25.39 16.933 78.324 78.324 0 0 1 16.985 25.421 78.619 78.619 0 0 1 5.985 30.022v114.085h17.705l20.869 36.226c4.033 7.006 10.625 7.055 14.648 0l20.869-36.305h6.836a58.856 58.856 0 0 0 41.45-17.367c10.997-11.053 17.204-26.023 17.271-41.652V124.529C506 92.071 479.555 66 447.25 66Z"/><path fill="#fff" d="M129.999 309.128c-5.195 0-9.457-.812-12.786-2.436-3.328-1.704-5.804-3.937-7.428-6.697-1.623-2.76-2.435-5.804-2.435-9.133 0-5.601 2.192-10.147 6.576-13.638 4.383-3.49 10.959-5.236 19.726-5.236h15.343v-1.461c0-4.14-1.177-7.184-3.532-9.132-2.354-1.949-5.276-2.923-8.767-2.923-3.166 0-5.926.771-8.28 2.314-2.354 1.461-3.815 3.653-4.384 6.575h-15.221c.406-4.383 1.867-8.199 4.384-11.446 2.598-3.247 5.926-5.723 9.985-7.428 4.059-1.786 8.605-2.679 13.638-2.679 8.605 0 15.383 2.152 20.335 6.454 4.952 4.303 7.428 10.391 7.428 18.265v37.139h-13.273l-1.461-9.741c-1.786 3.247-4.302 5.926-7.549 8.037-3.166 2.11-7.266 3.166-12.299 3.166Zm3.531-12.177c4.465 0 7.915-1.461 10.35-4.384 2.517-2.922 4.1-6.535 4.749-10.837h-13.272c-4.14 0-7.103.771-8.889 2.313-1.786 1.462-2.679 3.288-2.679 5.48 0 2.354.893 4.181 2.679 5.48 1.786 1.298 4.14 1.948 7.062 1.948ZM226.906 260.527c-3.537 9.296-8.227 17.029-14.15 23.446-6.334-6.663-11.188-14.561-14.726-23.446h28.876Zm23.364 0v-9.543h-32.66v-12.999h-9.954v12.999h-32.25v9.543h11.765c4.442 12.011 10.119 22.295 17.523 30.768-8.309 6.335-18.593 11.024-30.768 14.233 1.974 2.385 5.018 6.992 6.17 9.543 12.504-3.949 23.117-9.297 32.084-16.454 8.638 7.322 19.333 12.834 32.578 16.207 1.481-2.797 4.607-7.404 6.993-9.79-12.505-2.797-22.87-7.651-31.344-14.15 7.569-8.227 13.574-18.181 18.017-30.357h11.846Z"/></svg>